Chivo-Bold Italic.ufo
<glyph name="exclam" format="1">
  <advance width="290"/>
  <unicode hex="0021"/>
  <outline>
    <contour>
      <point x="23" y="0" type="line"/>
      <point x="169" y="0" type="line"/>
      <point x="190" y="147" type="line"/>
      <point x="44" y="147" type="line"/>
    </contour>
    <contour>
      <point x="75" y="202" type="line"/>
      <point x="172" y="202" type="line"/>
      <point x="281" y="686" type="line"/>
      <point x="104" y="686" type="line"/>
    </contour>
  </outline>
</glyph>
<glyph name="quotedbl" format="1">
  <advance width="461"/>
  <unicode hex="0022"/>
  <outline>
    <contour>
      <point x="95" y="401" type="line"/>
      <point x="145" y="401" type="line"/>
      <point x="164" y="447"/>
      <point x="181" y="492"/>
      <point x="199" y="539" type="curve"/>
      <point x="220" y="686" type="line"/>
      <point x="102" y="686" type="line"/>
      <point x="81" y="539" type="line"/>
    </contour>
    <contour>
      <point x="323" y="401" type="line"/>
      <point x="341" y="447"/>
      <point x="359" y="492"/>
      <point x="378" y="539" type="curve"/>
      <point x="399" y="686" type="line"/>
      <point x="280" y="686" type="line"/>
      <point x="259" y="539" type="line"/>
      <point x="264" y="492"/>
      <point x="269" y="447"/>
      <point x="273" y="401" type="curve"/>
    </contour>
  </outline>
</glyph>
<glyph name="quotesingle" format="1">
  <advance width="272"/>
  <unicode hex="0027"/>
  <outline>
    <contour>
      <point x="139" y="401" type="line"/>
      <point x="158" y="447"/>
      <point x="175" y="492"/>
      <point x="194" y="539" type="curve"/>
      <point x="215" y="686" type="line"/>
      <point x="96" y="686" type="line"/>
      <point x="75" y="539" type="line"/>
      <point x="80" y="492"/>
      <point x="85" y="447"/>
      <point x="89" y="401" type="curve"/>
    </contour>
  </outline>
</glyph>
<glyph name="parenleft" format="1">
  <advance width="326"/>
  <unicode hex="0028"/>
  <outline>
    <contour>
      <point x="28" y="52"/>
      <point x="65" y="-64"/>
      <point x="134" y="-157" type="curve"/>
      <point x="214" y="-157" type="line"/>
      <point x="173" y="-68"/>
      <point x="147" y="49"/>
      <point x="147" y="164" type="curve" smooth="yes"/>
      <point x="147" y="350"/>
      <point x="223" y="536"/>
      <point x="333" y="686" type="curve"/>
      <point x="253" y="686" type="line"/>
      <point x="114" y="546"/>
      <point x="28" y="368"/>
      <point x="28" y="176" type="curve" smooth="yes"/>
    </contour>
  </outline>
</glyph>
<glyph name="slash" format="1">
  <advance width="564"/>
  <unicode hex="002F"/>
  <outline>
    <contour>
      <point x="570" y="686" type="line"/>
      <point x="465" y="686" type="line"/>
      <point x="-25" y="-171" type="line"/>
      <point x="81" y="-171" type="line"/>
    </contour>
  </outline>
</glyph>
<glyph name="zero" format="1">
  <advance width="612"/>
  <unicode hex="0030"/>
  <outline>
    <contour>
      <point x="561" y="360"/>
      <point x="577" y="444"/>
      <point x="577" y="489" type="curve" smooth="yes"/>
      <point x="577" y="608"/>
      <point x="491" y="696"/>
      <point x="369" y="696" type="curve" smooth="yes"/>
      <point x="340" y="696" type="line" smooth="yes"/>
      <point x="199" y="696"/>
      <point x="86" y="598"/>
      <point x="66" y="455" type="curve" smooth="yes"/>
      <point x="47" y="324"/>
      <point x="32" y="226"/>
      <point x="32" y="194" type="curve" smooth="yes"/>
      <point x="32" y="76"/>
      <point x="119" y="-10"/>
      <point x="241" y="-10" type="curve" smooth="yes"/>
      <point x="270" y="-10" type="line" smooth="yes"/>
      <point x="422" y="-10"/>
      <point x="524" y="94"/>
      <point x="543" y="230" type="curve" smooth="yes"/>
    </contour>
    <contour>
      <point x="385" y="154"/>
      <point x="343" y="107"/>
      <point x="271" y="107" type="curve" smooth="yes"/>
      <point x="216" y="107"/>
      <point x="180" y="145"/>
      <point x="180" y="198" type="curve" smooth="yes"/>
      <point x="180" y="221"/>
      <point x="193" y="310"/>
      <point x="214" y="450" type="curve" smooth="yes"/>
      <point x="227" y="535"/>
      <point x="263" y="579"/>
      <point x="339" y="579" type="curve" smooth="yes"/>
      <point x="404" y="579"/>
      <point x="431" y="530"/>
      <point x="431" y="490" type="curve" smooth="yes"/>
      <point x="431" y="473"/>
      <point x="414" y="360"/>
      <point x="393" y="214" type="curve" smooth="yes"/>
    </contour>
  </outline>
</glyph>
<glyph name="two" format="1">
  <advance width="612"/>
  <unicode hex="0032"/>
  <outline>
    <contour>
      <point x="577" y="603"/>
      <point x="512" y="696"/>
      <point x="359" y="696" type="curve" smooth="yes"/>
      <point x="79" y="696"/>
      <point x="75" y="459"/>
      <point x="74" y="445" type="curve"/>
      <point x="212" y="445" type="line"/>
      <point x="212" y="520"/>
      <point x="261" y="574"/>
      <point x="335" y="574" type="curve" smooth="yes"/>
      <point x="395" y="574"/>
      <point x="426" y="538"/>
      <point x="426" y="492" type="curve" smooth="yes"/>
      <point x="426" y="314"/>
      <point x="10" y="274"/>
      <point x="10" y="0" type="curve"/>
      <point x="513" y="0" type="line"/>
      <point x="530" y="129" type="line"/>
      <point x="226" y="129" type="line"/>
      <point x="272" y="198"/>
      <point x="577" y="287"/>
      <point x="577" y="502" type="curve" smooth="yes"/>
    </contour>
  </outline>
</glyph>
<glyph name="five" format="1">
  <advance width="612"/>
  <unicode hex="0035"/>
  <outline>
    <contour>
      <point x="190" y="287" type="line"/>
      <point x="212" y="311"/>
      <point x="247" y="339"/>
      <point x="301" y="339" type="curve" smooth="yes"/>
      <point x="305" y="339" type="line" smooth="yes"/>
      <point x="360" y="339"/>
      <point x="398" y="295"/>
      <point x="398" y="246" type="curve" smooth="yes"/>
      <point x="398" y="151"/>
      <point x="330" y="111"/>
      <point x="266" y="111" type="curve" smooth="yes"/>
      <point x="214" y="111"/>
      <point x="167" y="147"/>
      <point x="167" y="205" type="curve" smooth="yes"/>
      <point x="167" y="210"/>
      <point x="167" y="214"/>
      <point x="168" y="219" type="curve"/>
      <point x="31" y="219" type="line"/>
      <point x="29" y="208"/>
      <point x="29" y="197"/>
      <point x="29" y="186" type="curve" smooth="yes"/>
      <point x="29" y="75"/>
      <point x="109" y="-10"/>
      <point x="248" y="-10" type="curve" smooth="yes"/>
      <point x="263" y="-10" type="line" smooth="yes"/>
      <point x="429" y="-10"/>
      <point x="547" y="100"/>
      <point x="547" y="267" type="curve" smooth="yes"/>
      <point x="547" y="375"/>
      <point x="483" y="453"/>
      <point x="357" y="453" type="curve" smooth="yes"/>
      <point x="290" y="453"/>
      <point x="238" y="420"/>
      <point x="217" y="405" type="curve"/>
      <point x="250" y="556" type="line"/>
      <point x="547" y="556" type="line"/>
      <point x="565" y="686" type="line"/>
      <point x="152" y="686" type="line"/>
      <point x="71" y="305" type="line"/>
    </contour>
  </outline>
</glyph>
<glyph name="eight" format="1">
  <advance width="612"/>
  <unicode hex="0038"/>
  <outline>
    <contour>
      <point x="453" y="352" type="line"/>
      <point x="509" y="387"/>
      <point x="562" y="430"/>
      <point x="562" y="529" type="curve" smooth="yes"/>
      <point x="562" y="636"/>
      <point x="476" y="696"/>
      <point x="355" y="696" type="curve" smooth="yes"/>
      <point x="213" y="696"/>
      <point x="93" y="613"/>
      <point x="93" y="468" type="curve" smooth="yes"/>
      <point x="93" y="410"/>
      <point x="122" y="380"/>
      <point x="161" y="352" type="curve"/>
      <point x="160" y="348" type="line"/>
      <point x="86" y="312"/>
      <point x="27" y="262"/>
      <point x="27" y="157" type="curve" smooth="yes"/>
      <point x="27" y="50"/>
      <point x="118" y="-10"/>
      <point x="256" y="-10" type="curve" smooth="yes"/>
      <point x="422" y="-10"/>
      <point x="541" y="72"/>
      <point x="541" y="216" type="curve" smooth="yes"/>
      <point x="541" y="283"/>
      <point x="505" y="318"/>
      <point x="452" y="348" type="curve"/>
    </contour>
    <contour>
      <point x="391" y="586"/>
      <point x="423" y="553"/>
      <point x="423" y="511" type="curve" smooth="yes"/>
      <point x="423" y="447"/>
      <point x="379" y="399"/>
      <point x="313" y="399" type="curve" smooth="yes"/>
      <point x="262" y="399"/>
      <point x="230" y="431"/>
      <point x="230" y="474" type="curve" smooth="yes"/>
      <point x="230" y="539"/>
      <point x="275" y="586"/>
      <point x="340" y="586" type="curve" smooth="yes"/>
    </contour>
    <contour>
      <point x="353" y="300"/>
      <point x="394" y="271"/>
      <point x="394" y="221" type="curve" smooth="yes"/>
      <point x="394" y="149"/>
      <point x="345" y="100"/>
      <point x="271" y="100" type="curve" smooth="yes"/>
      <point x="217" y="100"/>
      <point x="177" y="129"/>
      <point x="177" y="178" type="curve" smooth="yes"/>
      <point x="177" y="251"/>
      <point x="226" y="300"/>
      <point x="299" y="300" type="curve" smooth="yes"/>
    </contour>
  </outline>
</glyph>
<glyph name="nine" format="1">
  <advance width="612"/>
  <unicode hex="0039"/>
  <outline>
    <contour>
      <point x="216" y="110"/>
      <point x="184" y="151"/>
      <point x="184" y="200" type="curve" smooth="yes"/>
      <point x="184" y="206"/>
      <point x="184" y="211"/>
      <point x="185" y="217" type="curve"/>
      <point x="47" y="217" type="line"/>
      <point x="45" y="203"/>
      <point x="44" y="190"/>
      <point x="44" y="178" type="curve" smooth="yes"/>
      <point x="44" y="57"/>
      <point x="132" y="-10"/>
      <point x="251" y="-10" type="curve" smooth="yes"/>
      <point x="265" y="-10" type="line" smooth="yes"/>
      <point x="401" y="-10"/>
      <point x="525" y="95"/>
      <point x="544" y="231" type="curve" smooth="yes"/>
      <point x="577" y="468"/>
      <point x="578" y="476"/>
      <point x="578" y="492" type="curve" smooth="yes"/>
      <point x="578" y="616"/>
      <point x="486" y="696"/>
      <point x="361" y="696" type="curve" smooth="yes"/>
      <point x="347" y="696" type="line" smooth="yes"/>
      <point x="190" y="696"/>
      <point x="65" y="592"/>
      <point x="65" y="428" type="curve" smooth="yes"/>
      <point x="65" y="318"/>
      <point x="148" y="252"/>
      <point x="260" y="252" type="curve" smooth="yes"/>
      <point x="310" y="252"/>
      <point x="366" y="272"/>
      <point x="408" y="311" type="curve"/>
      <point x="394" y="214" type="line" smooth="yes"/>
      <point x="386" y="155"/>
      <point x="331" y="110"/>
      <point x="272" y="110" type="curve" smooth="yes"/>
    </contour>
    <contour>
      <point x="220" y="539"/>
      <point x="279" y="582"/>
      <point x="336" y="582" type="curve" smooth="yes"/>
      <point x="392" y="582"/>
      <point x="432" y="547"/>
      <point x="432" y="494" type="curve" smooth="yes"/>
      <point x="432" y="489"/>
      <point x="432" y="484"/>
      <point x="429" y="458" type="curve" smooth="yes"/>
      <point x="423" y="397"/>
      <point x="364" y="354"/>
      <point x="307" y="354" type="curve" smooth="yes"/>
      <point x="251" y="354"/>
      <point x="211" y="390"/>
      <point x="211" y="442" type="curve" smooth="yes"/>
      <point x="211" y="447"/>
      <point x="211" y="453"/>
      <point x="214" y="478" type="curve" smooth="yes"/>
    </contour>
  </outline>
</glyph>
<glyph name="semicolon" format="1">
  <advance width="277"/>
  <unicode hex="003B"/>
  <outline>
    <contour>
      <point x="90" y="363" type="line"/>
      <point x="236" y="363" type="line"/>
      <point x="257" y="511" type="line"/>
      <point x="111" y="511" type="line"/>
    </contour>
    <contour>
      <point x="122" y="-144" type="line"/>
      <point x="188" y="24" type="line"/>
      <point x="205" y="147" type="line"/>
      <point x="59" y="147" type="line"/>
      <point x="39" y="0" type="line"/>
      <point x="102" y="0" type="line"/>
      <point x="84" y="-48"/>
      <point x="66" y="-96"/>
      <point x="49" y="-144" type="curve"/>
    </contour>
  </outline>
</glyph>
<glyph name="less" format="1">
  <advance width="599"/>
  <unicode hex="003C"/>
  <outline>
    <contour>
      <point x="36" y="192" type="line"/>
      <point x="197" y="127"/>
      <point x="356" y="61"/>
      <point x="517" y="-3" type="curve"/>
      <point x="533" y="110" type="line"/>
      <point x="164" y="254" type="line"/>
      <point x="574" y="398" type="line"/>
      <point x="590" y="512" type="line"/>
      <point x="53" y="315" type="line"/>
    </contour>
  </outline>
</glyph>
<glyph name="equal" format="1">
  <advance width="600"/>
  <unicode hex="003D"/>
  <outline>
    <contour>
      <point x="561" y="309" type="line"/>
      <point x="576" y="415" type="line"/>
      <point x="68" y="415" type="line"/>
      <point x="53" y="309" type="line"/>
    </contour>
    <contour>
      <point x="531" y="93" type="line"/>
      <point x="546" y="199" type="line"/>
      <point x="38" y="199" type="line"/>
      <point x="23" y="93" type="line"/>
    </contour>
  </outline>
</glyph>
<glyph name="question" format="1">
  <advance width="572"/>
  <unicode hex="003F"/>
  <outline>
    <contour>
      <point x="314" y="0" type="line"/>
      <point x="320" y="49"/>
      <point x="327" y="98"/>
      <point x="334" y="147" type="curve"/>
      <point x="186" y="147" type="line"/>
      <point x="180" y="98"/>
      <point x="173" y="49"/>
      <point x="166" y="0" type="curve"/>
    </contour>
    <contour>
      <point x="338" y="237" type="line" smooth="yes"/>
      <point x="348" y="310"/>
      <point x="538" y="337"/>
      <point x="538" y="516" type="curve" smooth="yes"/>
      <point x="538" y="605"/>
      <point x="473" y="696"/>
      <point x="340" y="696" type="curve" smooth="yes"/>
      <point x="318" y="696" type="line" smooth="yes"/>
      <point x="165" y="696"/>
      <point x="52" y="599"/>
      <point x="52" y="452" type="curve"/>
      <point x="193" y="452" type="line"/>
      <point x="195" y="515"/>
      <point x="217" y="582"/>
      <point x="302" y="582" type="curve" smooth="yes"/>
      <point x="356" y="582"/>
      <point x="383" y="542"/>
      <point x="383" y="504" type="curve" smooth="yes"/>
      <point x="382" y="393"/>
      <point x="221" y="362"/>
      <point x="207" y="263" type="curve" smooth="yes"/>
      <point x="198" y="201" type="line"/>
      <point x="333" y="201" type="line"/>
    </contour>
  </outline>
</glyph>
<glyph name="at" format="1">
  <advance width="927"/>
  <unicode hex="0040"/>
  <outline>
    <contour>
      <point x="535" y="152"/>
      <point x="481" y="114"/>
      <point x="431" y="114" type="curve" smooth="yes"/>
      <point x="387" y="114"/>
      <point x="360" y="126"/>
      <point x="360" y="166" type="curve" smooth="yes"/>
      <point x="360" y="224"/>
      <point x="430" y="247"/>
      <point x="549" y="247" type="curve"/>
      <point x="549" y="247"/>
      <point x="547" y="227"/>
      <point x="545" y="217" type="curve"/>
    </contour>
    <contour>
      <point x="702" y="471"/>
      <point x="642" y="521"/>
      <point x="515" y="521" type="curve" smooth="yes"/>
      <point x="495" y="521" type="line" smooth="yes"/>
      <point x="360" y="521"/>
      <point x="264" y="453"/>
      <point x="264" y="364" type="curve"/>
      <point x="396" y="364" type="line"/>
      <point x="396" y="379"/>
      <point x="415" y="431"/>
      <point x="489" y="431" type="curve" smooth="yes"/>
      <point x="546" y="431"/>
      <point x="566" y="406"/>
      <point x="566" y="375" type="curve" smooth="yes"/>
      <point x="566" y="366"/>
      <point x="563" y="349"/>
      <point x="560" y="324" type="curve"/>
      <point x="364" y="324"/>
      <point x="217" y="298"/>
      <point x="217" y="147" type="curve" smooth="yes"/>
      <point x="217" y="48"/>
      <point x="287" y="22"/>
      <point x="363" y="22" type="curve" smooth="yes"/>
      <point x="440" y="22"/>
      <point x="488" y="56"/>
      <point x="536" y="104" type="curve"/>
      <point x="542" y="47"/>
      <point x="577" y="22"/>
      <point x="639" y="22" type="curve" smooth="yes"/>
      <point x="780" y="22"/>
      <point x="890" y="176"/>
      <point x="890" y="396" type="curve" smooth="yes"/>
      <point x="890" y="608"/>
      <point x="742" y="697"/>
      <point x="534" y="697" type="curve" smooth="yes"/>
      <point x="242" y="697"/>
      <point x="38" y="503"/>
      <point x="38" y="165" type="curve" smooth="yes"/>
      <point x="38" y="-55"/>
      <point x="167" y="-153"/>
      <point x="380" y="-153" type="curve" smooth="yes"/>
      <point x="423" y="-153"/>
      <point x="504" y="-142"/>
      <point x="549" y="-126" type="curve"/>
      <point x="558" y="-63" type="line"/>
      <point x="519" y="-81"/>
      <point x="434" y="-95"/>
      <point x="388" y="-95" type="curve" smooth="yes"/>
      <point x="195" y="-95"/>
      <point x="104" y="-6"/>
      <point x="104" y="170" type="curve" smooth="yes"/>
      <point x="104" y="481"/>
      <point x="285" y="639"/>
      <point x="526" y="639" type="curve" smooth="yes"/>
      <point x="704" y="639"/>
      <point x="823" y="564"/>
      <point x="823" y="387" type="curve" smooth="yes"/>
      <point x="823" y="268"/>
      <point x="780" y="113"/>
      <point x="699" y="113" type="curve" smooth="yes"/>
      <point x="681" y="113"/>
      <point x="669" y="123"/>
      <point x="669" y="146" type="curve"/>
      <point x="673" y="194"/>
      <point x="702" y="328"/>
      <point x="702" y="394" type="curve" smooth="yes"/>
    </contour>
  </outline>
</glyph>
<glyph name="B" format="1">
  <advance width="645"/>
  <unicode hex="0042"/>
  <outline>
    <contour>
      <point x="23" y="0" type="line"/>
      <point x="369" y="0" type="line" smooth="yes"/>
      <point x="495" y="0"/>
      <point x="587" y="95"/>
      <point x="587" y="216" type="curve" smooth="yes"/>
      <point x="587" y="307"/>
      <point x="527" y="341"/>
      <point x="475" y="352" type="curve"/>
      <point x="476" y="359" type="line"/>
      <point x="537" y="375"/>
      <point x="617" y="424"/>
      <point x="617" y="540" type="curve" smooth="yes"/>
      <point x="617" y="626"/>
      <point x="547" y="686"/>
      <point x="454" y="686" type="curve" smooth="yes"/>
      <point x="120" y="686" type="line"/>
    </contour>
    <contour>
      <point x="226" y="408" type="line"/>
      <point x="233" y="462"/>
      <point x="241" y="515"/>
      <point x="248" y="568" type="curve"/>
      <point x="399" y="568" type="line" smooth="yes"/>
      <point x="437" y="568"/>
      <point x="465" y="547"/>
      <point x="465" y="503" type="curve" smooth="yes"/>
      <point x="465" y="454"/>
      <point x="426" y="408"/>
      <point x="377" y="408" type="curve" smooth="yes"/>
    </contour>
    <contour>
      <point x="186" y="124" type="line"/>
      <point x="194" y="179"/>
      <point x="202" y="235"/>
      <point x="209" y="291" type="curve"/>
      <point x="371" y="291" type="line" smooth="yes"/>
      <point x="411" y="291"/>
      <point x="439" y="258"/>
      <point x="439" y="221" type="curve" smooth="yes"/>
      <point x="439" y="158"/>
      <point x="398" y="124"/>
      <point x="348" y="124" type="curve" smooth="yes"/>
    </contour>
  </outline>
</glyph>
<glyph name="G" format="1">
  <advance width="699"/>
  <unicode hex="0047"/>
  <outline>
    <contour>
      <point x="590" y="0" type="line"/>
      <point x="590" y="47"/>
      <point x="597" y="92"/>
      <point x="603" y="136" type="curve" smooth="yes"/>
      <point x="636" y="373" type="line"/>
      <point x="336" y="373" type="line"/>
      <point x="320" y="261" type="line"/>
      <point x="475" y="261" type="line"/>
      <point x="459" y="157"/>
      <point x="396" y="113"/>
      <point x="318" y="113" type="curve" smooth="yes"/>
      <point x="243" y="113"/>
      <point x="196" y="160"/>
      <point x="196" y="240" type="curve" smooth="yes"/>
      <point x="196" y="269"/>
      <point x="212" y="412"/>
      <point x="246" y="486" type="curve" smooth="yes"/>
      <point x="270" y="539"/>
      <point x="318" y="573"/>
      <point x="383" y="573" type="curve" smooth="yes"/>
      <point x="448" y="573"/>
      <point x="501" y="544"/>
      <point x="501" y="468" type="curve" smooth="yes"/>
      <point x="501" y="460"/>
      <point x="501" y="451"/>
      <point x="500" y="442" type="curve"/>
      <point x="646" y="442" type="line"/>
      <point x="647" y="453"/>
      <point x="649" y="470"/>
      <point x="649" y="484" type="curve" smooth="yes"/>
      <point x="649" y="617"/>
      <point x="545" y="696"/>
      <point x="411" y="696" type="curve" smooth="yes"/>
      <point x="397" y="696" type="line" smooth="yes"/>
      <point x="205" y="696"/>
      <point x="80" y="579"/>
      <point x="54" y="392" type="curve" smooth="yes"/>
      <point x="44" y="321"/>
      <point x="36" y="261"/>
      <point x="36" y="238" type="curve" smooth="yes"/>
      <point x="36" y="84"/>
      <point x="134" y="-10"/>
      <point x="281" y="-10" type="curve" smooth="yes"/>
      <point x="286" y="-10" type="line" smooth="yes"/>
      <point x="377" y="-10"/>
      <point x="441" y="23"/>
      <point x="492" y="77" type="curve"/>
      <point x="496" y="42"/>
      <point x="501" y="16"/>
      <point x="505" y="0" type="curve"/>
    </contour>
    <contour>
      <point x="411" y="686" type="move" name="top"/>
    </contour>
    <contour>
      <point x="314" y="0" type="move" name="bottom"/>
    </contour>
  </outline>
</glyph>
<glyph name="H" format="1">
  <advance width="691"/>
  <unicode hex="0048"/>
  <outline>
    <contour>
      <point x="569" y="0" type="line"/>
      <point x="666" y="686" type="line"/>
      <point x="512" y="686" type="line"/>
      <point x="473" y="414" type="line"/>
      <point x="235" y="414" type="line"/>
      <point x="274" y="686" type="line"/>
      <point x="120" y="686" type="line"/>
      <point x="23" y="0" type="line"/>
      <point x="178" y="0" type="line"/>
      <point x="218" y="286" type="line"/>
      <point x="455" y="286" type="line"/>
      <point x="415" y="0" type="line"/>
    </contour>
    <contour>
      <point x="370" y="343" type="move" name="center"/>
    </contour>
    <contour>
      <point x="407" y="686" type="move" name="top"/>
    </contour>
  </outline>
</glyph>
<glyph name="I" format="1">
  <advance width="461"/>
  <unicode hex="0049"/>
  <outline>
    <contour>
      <point x="102" y="563" type="line"/>
      <point x="183" y="563" type="line"/>
      <point x="122" y="123" type="line"/>
      <point x="41" y="123" type="line"/>
      <point x="23" y="0" type="line"/>
      <point x="339" y="0" type="line"/>
      <point x="357" y="123" type="line"/>
      <point x="277" y="123" type="line"/>
      <point x="338" y="563" type="line"/>
      <point x="418" y="563" type="line"/>
      <point x="436" y="686" type="line"/>
      <point x="120" y="686" type="line"/>
    </contour>
    <contour>
      <point x="319" y="10" type="move" name="ogonek"/>
    </contour>
    <contour>
      <point x="282" y="686" type="move" name="top"/>
    </contour>
  </outline>
</glyph>
<glyph name="J" format="1">
  <advance width="527"/>
  <unicode hex="004A"/>
  <outline>
    <contour>
      <point x="-5" y="228" type="line"/>
      <point x="-14" y="179"/>
      <point x="-14" y="158"/>
      <point x="-14" y="147" type="curve" smooth="yes"/>
      <point x="-14" y="44"/>
      <point x="77" y="-10"/>
      <point x="178" y="-10" type="curve" smooth="yes"/>
      <point x="198" y="-10" type="line" smooth="yes"/>
      <point x="318" y="-10"/>
      <point x="416" y="56"/>
      <point x="433" y="183" type="curve" smooth="yes"/>
      <point x="503" y="686" type="line"/>
      <point x="352" y="686" type="line"/>
      <point x="282" y="187" type="line" smooth="yes"/>
      <point x="276" y="142"/>
      <point x="242" y="113"/>
      <point x="200" y="113" type="curve" smooth="yes"/>
      <point x="156" y="113"/>
      <point x="132" y="142"/>
      <point x="132" y="178" type="curve" smooth="yes"/>
      <point x="132" y="198"/>
      <point x="139" y="228"/>
      <point x="139" y="228" type="curve" smooth="yes"/>
    </contour>
    <contour>
      <point x="325" y="686" type="move" name="top"/>
    </contour>
  </outline>
</glyph>
<glyph name="L" format="1">
  <advance width="533"/>
  <unicode hex="004C"/>
  <outline>
    <contour>
      <point x="477" y="0" type="line"/>
      <point x="477" y="128" type="line"/>
      <point x="196" y="128" type="line"/>
      <point x="275" y="686" type="line"/>
      <point x="120" y="686" type="line"/>
      <point x="23" y="0" type="line"/>
    </contour>
    <contour>
      <point x="248" y="686" type="move" name="top"/>
    </contour>
    <contour>
      <point x="231" y="0" type="move" name="bottom"/>
    </contour>
    <contour>
      <point x="494" y="686" type="move" name="topright"/>
    </contour>
  </outline>
</glyph>
<glyph name="M" format="1">
  <advance width="967"/>
  <unicode hex="004D"/>
  <outline>
    <contour>
      <point x="845" y="0" type="line"/>
      <point x="942" y="686" type="line"/>
      <point x="693" y="686" type="line"/>
      <point x="469" y="233" type="line"/>
      <point x="465" y="233" type="line"/>
      <point x="369" y="686" type="line"/>
      <point x="120" y="686" type="line"/>
      <point x="23" y="0" type="line"/>
      <point x="163" y="0" type="line"/>
      <point x="234" y="505" type="line"/>
      <point x="239" y="505" type="line"/>
      <point x="346" y="0" type="line"/>
      <point x="508" y="0" type="line"/>
      <point x="757" y="505" type="line"/>
      <point x="762" y="505" type="line"/>
      <point x="691" y="0" type="line"/>
    </contour>
  </outline>
</glyph>
<glyph name="P" format="1">
  <advance width="629"/>
  <unicode hex="0050"/>
  <outline>
    <contour>
      <point x="397" y="563" type="line" smooth="yes"/>
      <point x="445" y="563"/>
      <point x="474" y="529"/>
      <point x="474" y="489" type="curve"/>
      <point x="470" y="440"/>
      <point x="437" y="386"/>
      <point x="372" y="386" type="curve" smooth="yes"/>
      <point x="231" y="386" type="line"/>
      <point x="256" y="563" type="line"/>
    </contour>
    <contour>
      <point x="391" y="265" type="line" smooth="yes"/>
      <point x="535" y="265"/>
      <point x="631" y="371"/>
      <point x="631" y="511" type="curve" smooth="yes"/>
      <point x="631" y="613"/>
      <point x="555" y="686"/>
      <point x="450" y="686" type="curve" smooth="yes"/>
      <point x="120" y="686" type="line"/>
      <point x="23" y="0" type="line"/>
      <point x="177" y="0" type="line"/>
      <point x="214" y="265" type="line"/>
    </contour>
  </outline>
</glyph>
<glyph name="Q" format="1">
  <advance width="708"/>
  <unicode hex="0051"/>
  <outline>
    <contour>
      <point x="679" y="409"/>
      <point x="680" y="416"/>
      <point x="680" y="443" type="curve" smooth="yes"/>
      <point x="680" y="599"/>
      <point x="573" y="695"/>
      <point x="427" y="695" type="curve" smooth="yes"/>
      <point x="232" y="695"/>
      <point x="93" y="592"/>
      <point x="65" y="391" type="curve" smooth="yes"/>
      <point x="49" y="276"/>
      <point x="47" y="271"/>
      <point x="47" y="241" type="curve" smooth="yes"/>
      <point x="47" y="104"/>
      <point x="130" y="13"/>
      <point x="251" y="-6" type="curve"/>
      <point x="256" y="-72"/>
      <point x="302" y="-153"/>
      <point x="438" y="-153" type="curve" smooth="yes"/>
      <point x="530" y="-153"/>
      <point x="600" y="-116"/>
      <point x="600" y="-116" type="curve"/>
      <point x="612" y="-28" type="line"/>
      <point x="612" y="-29"/>
      <point x="534" y="-54"/>
      <point x="487" y="-54" type="curve" smooth="yes"/>
      <point x="432" y="-54"/>
      <point x="411" y="-25"/>
      <point x="404" y="1" type="curve"/>
      <point x="543" y="32"/>
      <point x="639" y="129"/>
      <point x="663" y="294" type="curve" smooth="yes"/>
    </contour>
    <contour>
      <point x="483" y="167"/>
      <point x="420" y="113"/>
      <point x="333" y="113" type="curve" smooth="yes"/>
      <point x="258" y="113"/>
      <point x="208" y="159"/>
      <point x="208" y="236" type="curve" smooth="yes"/>
      <point x="208" y="271"/>
      <point x="214" y="304"/>
      <point x="226" y="390" type="curve" smooth="yes"/>
      <point x="241" y="506"/>
      <point x="295" y="573"/>
      <point x="395" y="573" type="curve" smooth="yes"/>
      <point x="469" y="573"/>
      <point x="520" y="526"/>
      <point x="520" y="449" type="curve" smooth="yes"/>
      <point x="520" y="406"/>
      <point x="512" y="364"/>
      <point x="498" y="272" type="curve" smooth="yes"/>
    </contour>
  </outline>
</glyph>
<glyph name="R" format="1">
  <advance width="665"/>
  <unicode hex="0052"/>
  <outline>
    <contour>
      <point x="233" y="405" type="line"/>
      <point x="255" y="563" type="line"/>
      <point x="405" y="563" type="line" smooth="yes"/>
      <point x="448" y="563"/>
      <point x="475" y="535"/>
      <point x="475" y="498" type="curve" smooth="yes"/>
      <point x="475" y="443"/>
      <point x="433" y="405"/>
      <point x="383" y="405" type="curve" smooth="yes"/>
    </contour>
    <contour>
      <point x="333" y="284" type="line" smooth="yes"/>
      <point x="384" y="284"/>
      <point x="418" y="249"/>
      <point x="418" y="176" type="curve" smooth="yes"/>
      <point x="418" y="152"/>
      <point x="410" y="112"/>
      <point x="410" y="86" type="curve" smooth="yes"/>
      <point x="410" y="13"/>
      <point x="451" y="-7"/>
      <point x="512" y="-7" type="curve" smooth="yes"/>
      <point x="542" y="-7"/>
      <point x="577" y="-3"/>
      <point x="601" y="6" type="curve"/>
      <point x="605" y="40" type="line"/>
      <point x="578" y="49"/>
      <point x="567" y="77"/>
      <point x="567" y="113" type="curve" smooth="yes"/>
      <point x="567" y="123"/>
      <point x="574" y="195"/>
      <point x="574" y="207" type="curve" smooth="yes"/>
      <point x="574" y="294"/>
      <point x="528" y="334"/>
      <point x="488" y="348" type="curve"/>
      <point x="489" y="355" type="line"/>
      <point x="588" y="373"/>
      <point x="635" y="460"/>
      <point x="635" y="542" type="curve" smooth="yes"/>
      <point x="635" y="650"/>
      <point x="541" y="686"/>
      <point x="427" y="686" type="curve" smooth="yes"/>
      <point x="120" y="686" type="line"/>
      <point x="24" y="0" type="line"/>
      <point x="176" y="0" type="line"/>
      <point x="216" y="284" type="line"/>
    </contour>
    <contour>
      <point x="394" y="686" type="move" name="top"/>
    </contour>
    <contour>
      <point x="297" y="0" type="move" name="bottom"/>
    </contour>
  </outline>
</glyph>
<glyph name="S" format="1">
  <advance width="635"/>
  <unicode hex="0053"/>
  <outline>
    <contour>
      <point x="578" y="457"/>
      <point x="227" y="383"/>
      <point x="227" y="500" type="curve" smooth="yes"/>
      <point x="227" y="549"/>
      <point x="279" y="575"/>
      <point x="354" y="575" type="curve" smooth="yes"/>
      <point x="417" y="575"/>
      <point x="456" y="548"/>
      <point x="456" y="506" type="curve" smooth="yes"/>
      <point x="456" y="504"/>
      <point x="455" y="493"/>
      <point x="453" y="483" type="curve"/>
      <point x="598" y="483" type="line"/>
      <point x="602" y="504"/>
      <point x="602" y="516"/>
      <point x="602" y="526" type="curve" smooth="yes"/>
      <point x="602" y="644"/>
      <point x="499" y="696"/>
      <point x="368" y="696" type="curve" smooth="yes"/>
      <point x="197" y="696"/>
      <point x="68" y="622"/>
      <point x="68" y="471" type="curve" smooth="yes"/>
      <point x="68" y="241"/>
      <point x="417" y="318"/>
      <point x="417" y="200" type="curve" smooth="yes"/>
      <point x="417" y="147"/>
      <point x="372" y="115"/>
      <point x="274" y="115" type="curve" smooth="yes"/>
      <point x="199" y="115"/>
      <point x="160" y="144"/>
      <point x="160" y="193" type="curve" smooth="yes"/>
      <point x="160" y="201"/>
      <point x="161" y="218"/>
      <point x="165" y="224" type="curve"/>
      <point x="19" y="224" type="line"/>
      <point x="15" y="209"/>
      <point x="12" y="186"/>
      <point x="12" y="168" type="curve" smooth="yes"/>
      <point x="12" y="41"/>
      <point x="126" y="-10"/>
      <point x="262" y="-10" type="curve" smooth="yes"/>
      <point x="480" y="-10"/>
      <point x="578" y="90"/>
      <point x="578" y="236" type="curve" smooth="yes"/>
    </contour>
    <contour>
      <point x="379" y="686" type="move" name="top"/>
    </contour>
    <contour>
      <point x="282" y="0" type="move" name="bottom"/>
    </contour>
  </outline>
</glyph>
<glyph name="bracketleft" format="1">
  <advance width="338"/>
  <unicode hex="005B"/>
  <outline>
    <contour>
      <point x="205" y="-161" type="line"/>
      <point x="215" y="-92" type="line"/>
      <point x="127" y="-92" type="line"/>
      <point x="226" y="617" type="line"/>
      <point x="314" y="617" type="line"/>
      <point x="324" y="686" type="line"/>
      <point x="121" y="686" type="line"/>
      <point x="2" y="-161" type="line"/>
    </contour>
  </outline>
</glyph>
<glyph name="b" format="1">
  <advance width="595"/>
  <unicode hex="0062"/>
  <outline>
    <contour>
      <point x="263" y="720" type="line"/>
      <point x="117" y="720" type="line"/>
      <point x="16" y="0" type="line"/>
      <point x="69" y="0" type="line"/>
      <point x="89" y="25"/>
      <point x="110" y="52"/>
      <point x="131" y="78" type="curve"/>
      <point x="161" y="21"/>
      <point x="214" y="-10"/>
      <point x="288" y="-10" type="curve" smooth="yes"/>
      <point x="468" y="-10"/>
      <point x="543" y="167"/>
      <point x="543" y="324" type="curve" smooth="yes"/>
      <point x="543" y="455"/>
      <point x="473" y="521"/>
      <point x="378" y="521" type="curve" smooth="yes"/>
      <point x="308" y="521"/>
      <point x="255" y="485"/>
      <point x="225" y="452" type="curve"/>
    </contour>
    <contour>
      <point x="371" y="130"/>
      <point x="324" y="90"/>
      <point x="270" y="90" type="curve" smooth="yes"/>
      <point x="222" y="90"/>
      <point x="189" y="121"/>
      <point x="189" y="183" type="curve" smooth="yes"/>
      <point x="189" y="192"/>
      <point x="190" y="201"/>
      <point x="203" y="294" type="curve" smooth="yes"/>
      <point x="215" y="375"/>
      <point x="261" y="415"/>
      <point x="316" y="415" type="curve" smooth="yes"/>
      <point x="363" y="415"/>
      <point x="397" y="384"/>
      <point x="397" y="322" type="curve" smooth="yes"/>
      <point x="397" y="313"/>
      <point x="396" y="304"/>
      <point x="383" y="211" type="curve" smooth="yes"/>
    </contour>
  </outline>
</glyph>
<glyph name="e" format="1">
  <advance width="584"/>
  <unicode hex="0065"/>
  <outline>
    <contour>
      <point x="390" y="191" type="line"/>
      <point x="381" y="123"/>
      <point x="337" y="90"/>
      <point x="277" y="90" type="curve" smooth="yes"/>
      <point x="215" y="90"/>
      <point x="182" y="131"/>
      <point x="182" y="186" type="curve" smooth="yes"/>
      <point x="182" y="193"/>
      <point x="184" y="219"/>
      <point x="187" y="231" type="curve"/>
      <point x="537" y="231" type="line"/>
      <point x="548" y="307" type="line"/>
      <point x="549" y="318"/>
      <point x="550" y="329"/>
      <point x="550" y="340" type="curve" smooth="yes"/>
      <point x="550" y="456"/>
      <point x="458" y="521"/>
      <point x="346" y="521" type="curve" smooth="yes"/>
      <point x="330" y="521" type="line" smooth="yes"/>
      <point x="148" y="521"/>
      <point x="37" y="385"/>
      <point x="37" y="197" type="curve" smooth="yes"/>
      <point x="37" y="65"/>
      <point x="127" y="-10"/>
      <point x="255" y="-10" type="curve" smooth="yes"/>
      <point x="271" y="-10" type="line" smooth="yes"/>
      <point x="389" y="-10"/>
      <point x="511" y="50"/>
      <point x="530" y="191" type="curve"/>
    </contour>
    <contour>
      <point x="379" y="421"/>
      <point x="402" y="387"/>
      <point x="402" y="338" type="curve" smooth="yes"/>
      <point x="402" y="329"/>
      <point x="401" y="320"/>
      <point x="400" y="311" type="curve"/>
      <point x="198" y="311" type="line"/>
      <point x="212" y="373"/>
      <point x="257" y="421"/>
      <point x="317" y="421" type="curve" smooth="yes"/>
    </contour>
    <contour>
      <point x="350" y="10" type="move" name="ogonek"/>
    </contour>
    <contour>
      <point x="256" y="0" type="move" name="bottom"/>
    </contour>
    <contour>
      <point x="328" y="511" type="move" name="top"/>
    </contour>
  </outline>
</glyph>
<glyph name="g" format="1">
  <advance width="572"/>
  <unicode hex="0067"/>
  <outline>
    <contour>
      <point x="28" y="-19" type="line"/>
      <point x="28" y="-129"/>
      <point x="120" y="-186"/>
      <point x="248" y="-186" type="curve" smooth="yes"/>
      <point x="398" y="-186"/>
      <point x="489" y="-102"/>
      <point x="508" y="37" type="curve" smooth="yes"/>
      <point x="575" y="511" type="line"/>
      <point x="522" y="511" type="line"/>
      <point x="501" y="485"/>
      <point x="480" y="459"/>
      <point x="460" y="433" type="curve"/>
      <point x="429" y="492"/>
      <point x="373" y="521"/>
      <point x="303" y="521" type="curve" smooth="yes"/>
      <point x="127" y="521"/>
      <point x="50" y="362"/>
      <point x="50" y="212" type="curve" smooth="yes"/>
      <point x="50" y="98"/>
      <point x="110" y="19"/>
      <point x="216" y="19" type="curve" smooth="yes"/>
      <point x="279" y="19"/>
      <point x="333" y="48"/>
      <point x="369" y="88" type="curve"/>
      <point x="361" y="24"/>
      <point x="361" y="-87"/>
      <point x="257" y="-87" type="curve" smooth="yes"/>
      <point x="202" y="-87"/>
      <point x="174" y="-55"/>
      <point x="174" y="-19" type="curve"/>
    </contour>
    <contour>
      <point x="220" y="384"/>
      <point x="268" y="421"/>
      <point x="322" y="421" type="curve" smooth="yes"/>
      <point x="371" y="421"/>
      <point x="402" y="390"/>
      <point x="402" y="326" type="curve" smooth="yes"/>
      <point x="402" y="303"/>
      <point x="394" y="259"/>
      <point x="390" y="231" type="curve" smooth="yes"/>
      <point x="379" y="156"/>
      <point x="331" y="119"/>
      <point x="276" y="119" type="curve" smooth="yes"/>
      <point x="228" y="119"/>
      <point x="194" y="148"/>
      <point x="194" y="206" type="curve" smooth="yes"/>
      <point x="194" y="214"/>
      <point x="195" y="222"/>
      <point x="208" y="309" type="curve" smooth="yes"/>
    </contour>
    <contour>
      <point x="322" y="511" type="move" name="top"/>
    </contour>
  </outline>
</glyph>
<glyph name="h" format="1">
  <advance width="598"/>
  <unicode hex="0068"/>
  <outline>
    <contour>
      <point x="116" y="720" type="line"/>
      <point x="15" y="0" type="line"/>
      <point x="161" y="0" type="line"/>
      <point x="205" y="314" type="line" smooth="yes"/>
      <point x="213" y="371"/>
      <point x="263" y="415"/>
      <point x="314" y="415" type="curve" smooth="yes"/>
      <point x="356" y="415"/>
      <point x="383" y="384"/>
      <point x="383" y="340" type="curve" smooth="yes"/>
      <point x="383" y="335"/>
      <point x="383" y="330"/>
      <point x="336" y="0" type="curve"/>
      <point x="482" y="0" type="line"/>
      <point x="533" y="367"/>
      <point x="534" y="366"/>
      <point x="534" y="386" type="curve" smooth="yes"/>
      <point x="534" y="477"/>
      <point x="465" y="521"/>
      <point x="376" y="521" type="curve" smooth="yes"/>
      <point x="312" y="521"/>
      <point x="262" y="494"/>
      <point x="226" y="461" type="curve"/>
      <point x="262" y="720" type="line"/>
    </contour>
    <contour>
      <point x="335" y="256" type="move" name="center"/>
    </contour>
    <contour>
      <point x="335" y="511" type="move" name="top"/>
    </contour>
  </outline>
</glyph>
<glyph name="k" format="1">
  <advance width="562"/>
  <unicode hex="006B"/>
  <outline>
    <contour>
      <point x="513" y="0" type="line"/>
      <point x="355" y="271" type="line"/>
      <point x="577" y="511" type="line"/>
      <point x="412" y="511" type="line"/>
      <point x="199" y="273" type="line"/>
      <point x="262" y="720" type="line"/>
      <point x="116" y="720" type="line"/>
      <point x="15" y="0" type="line"/>
      <point x="161" y="0" type="line"/>
      <point x="177" y="112" type="line"/>
      <point x="241" y="167" type="line"/>
      <point x="339" y="0" type="line"/>
    </contour>
    <contour>
      <point x="245" y="0" type="move" name="bottom"/>
    </contour>
  </outline>
</glyph>
<glyph name="l" format="1">
  <advance width="279"/>
  <unicode hex="006C"/>
  <outline>
    <contour>
      <point x="161" y="0" type="line"/>
      <point x="262" y="720" type="line"/>
      <point x="116" y="720" type="line"/>
      <point x="15" y="0" type="line"/>
    </contour>
    <contour>
      <point x="214" y="686" type="move" name="top"/>
    </contour>
    <contour>
      <point x="104" y="0" type="move" name="bottom"/>
    </contour>
    <contour>
      <point x="433" y="686" type="move" name="topright"/>
    </contour>
  </outline>
</glyph>
<glyph name="m" format="1">
  <advance width="870"/>
  <unicode hex="006D"/>
  <outline>
    <contour>
      <point x="318" y="521"/>
      <point x="261" y="494"/>
      <point x="216" y="436" type="curve"/>
      <point x="215" y="461"/>
      <point x="213" y="486"/>
      <point x="211" y="511" type="curve"/>
      <point x="101" y="511" type="line"/>
      <point x="29" y="0" type="line"/>
      <point x="175" y="0" type="line"/>
      <point x="219" y="317" type="line" smooth="yes"/>
      <point x="227" y="374"/>
      <point x="269" y="415"/>
      <point x="315" y="415" type="curve" smooth="yes"/>
      <point x="351" y="415"/>
      <point x="373" y="392"/>
      <point x="373" y="349" type="curve" smooth="yes"/>
      <point x="373" y="338"/>
      <point x="373" y="335"/>
      <point x="326" y="0" type="curve"/>
      <point x="472" y="0" type="line"/>
      <point x="516" y="317" type="line" smooth="yes"/>
      <point x="524" y="374"/>
      <point x="567" y="415"/>
      <point x="613" y="415" type="curve" smooth="yes"/>
      <point x="649" y="415"/>
      <point x="670" y="392"/>
      <point x="670" y="349" type="curve" smooth="yes"/>
      <point x="670" y="338"/>
      <point x="670" y="336"/>
      <point x="623" y="0" type="curve"/>
      <point x="769" y="0" type="line"/>
      <point x="820" y="367"/>
      <point x="821" y="354"/>
      <point x="821" y="386" type="curve" smooth="yes"/>
      <point x="821" y="474"/>
      <point x="758" y="521"/>
      <point x="675" y="521" type="curve" smooth="yes"/>
      <point x="615" y="521"/>
      <point x="560" y="497"/>
      <point x="515" y="439" type="curve"/>
      <point x="494" y="493"/>
      <point x="442" y="521"/>
      <point x="378" y="521" type="curve" smooth="yes"/>
    </contour>
  </outline>
</glyph>
<glyph name="t" format="1">
  <advance width="371"/>
  <unicode hex="0074"/>
  <outline>
    <contour>
      <point x="310" y="103" type="line"/>
      <point x="293" y="96"/>
      <point x="261" y="90"/>
      <point x="246" y="90" type="curve" smooth="yes"/>
      <point x="221" y="90"/>
      <point x="197" y="97"/>
      <point x="197" y="139" type="curve" smooth="yes"/>
      <point x="197" y="150"/>
      <point x="198" y="151"/>
      <point x="235" y="411" type="curve"/>
      <point x="354" y="411" type="line"/>
      <point x="368" y="511" type="line"/>
      <point x="249" y="511" type="line"/>
      <point x="281" y="674" type="line"/>
      <point x="127" y="674" type="line"/>
      <point x="104" y="511" type="line"/>
      <point x="47" y="511" type="line"/>
      <point x="33" y="411" type="line"/>
      <point x="89" y="411" type="line"/>
      <point x="48" y="121"/>
      <point x="47" y="113"/>
      <point x="47" y="99" type="curve" smooth="yes"/>
      <point x="47" y="19"/>
      <point x="97" y="-10"/>
      <point x="184" y="-10" type="curve" smooth="yes"/>
      <point x="216" y="-10"/>
      <point x="269" y="-2"/>
      <point x="297" y="9" type="curve"/>
    </contour>
    <contour>
      <point x="140" y="256" type="move" name="center"/>
    </contour>
    <contour>
      <point x="150" y="0" type="move" name="bottom"/>
    </contour>
    <contour>
      <point x="477" y="686" type="move" name="topright"/>
    </contour>
  </outline>
</glyph>
<glyph name="w" format="1">
  <advance width="820"/>
  <unicode hex="0077"/>
  <outline>
    <contour>
      <point x="417" y="285" type="line"/>
      <point x="461" y="0" type="line"/>
      <point x="622" y="0" type="line"/>
      <point x="849" y="511" type="line"/>
      <point x="707" y="511" type="line"/>
      <point x="664" y="405"/>
      <point x="619" y="300"/>
      <point x="574" y="195" type="curve"/>
      <point x="568" y="195" type="line"/>
      <point x="553" y="300"/>
      <point x="539" y="405"/>
      <point x="523" y="511" type="curve"/>
      <point x="377" y="511" type="line"/>
      <point x="333" y="405"/>
      <point x="287" y="300"/>
      <point x="242" y="195" type="curve"/>
      <point x="236" y="195" type="line"/>
      <point x="222" y="300"/>
      <point x="208" y="405"/>
      <point x="192" y="511" type="curve"/>
      <point x="41" y="511" type="line"/>
      <point x="126" y="0" type="line"/>
      <point x="289" y="0" type="line"/>
      <point x="411" y="285" type="line"/>
    </contour>
    <contour>
      <point x="446" y="511" type="move" name="top"/>
    </contour>
  </outline>
</glyph>
<glyph name="asciitilde" format="1">
  <advance width="714"/>
  <unicode hex="007E"/>
  <outline>
    <contour>
      <point x="652" y="396" type="line"/>
      <point x="652" y="396"/>
      <point x="573" y="318"/>
      <point x="478" y="318" type="curve" smooth="yes"/>
      <point x="390" y="318"/>
      <point x="335" y="384"/>
      <point x="250" y="384" type="curve" smooth="yes"/>
      <point x="155" y="384"/>
      <point x="76" y="306"/>
      <point x="76" y="306" type="curve"/>
      <point x="61" y="200" type="line"/>
      <point x="61" y="200"/>
      <point x="140" y="278"/>
      <point x="235" y="278" type="curve" smooth="yes"/>
      <point x="323" y="278"/>
      <point x="378" y="212"/>
      <point x="463" y="212" type="curve" smooth="yes"/>
      <point x="558" y="212"/>
      <point x="637" y="290"/>
      <point x="637" y="290" type="curve"/>
    </contour>
  </outline>
</glyph>
<glyph name="exclamdown" format="1">
  <advance width="290"/>
  <unicode hex="00A1"/>
  <outline>
    <contour>
      <point x="266" y="511" type="line"/>
      <point x="120" y="511" type="line"/>
      <point x="99" y="364" type="line"/>
      <point x="245" y="364" type="line"/>
    </contour>
    <contour>
      <point x="214" y="309" type="line"/>
      <point x="117" y="309" type="line"/>
      <point x="8" y="-175" type="line"/>
      <point x="185" y="-175" type="line"/>
    </contour>
  </outline>
</glyph>
<glyph name="section" format="1">
  <advance width="550"/>
  <unicode hex="00A7"/>
  <outline>
    <contour>
      <point x="89" y="469"/>
      <point x="109" y="430"/>
      <point x="142" y="407" type="curve"/>
      <point x="90" y="381"/>
      <point x="37" y="315"/>
      <point x="37" y="236" type="curve" smooth="yes"/>
      <point x="37" y="71"/>
      <point x="322" y="71"/>
      <point x="322" y="-29" type="curve" smooth="yes"/>
      <point x="322" y="-63"/>
      <point x="287" y="-89"/>
      <point x="224" y="-89" type="curve" smooth="yes"/>
      <point x="171" y="-89"/>
      <point x="144" y="-66"/>
      <point x="144" y="-35" type="curve" smooth="yes"/>
      <point x="144" y="-27" type="line"/>
      <point x="16" y="-27" type="line"/>
      <point x="13" y="-39"/>
      <point x="12" y="-49"/>
      <point x="12" y="-58" type="curve" smooth="yes"/>
      <point x="12" y="-143"/>
      <point x="102" y="-185"/>
      <point x="211" y="-185" type="curve" smooth="yes"/>
      <point x="336" y="-185"/>
      <point x="460" y="-128"/>
      <point x="460" y="-4" type="curve" smooth="yes"/>
      <point x="460" y="41"/>
      <point x="439" y="80"/>
      <point x="406" y="103" type="curve"/>
      <point x="458" y="129"/>
      <point x="511" y="195"/>
      <point x="511" y="274" type="curve" smooth="yes"/>
      <point x="511" y="439"/>
      <point x="226" y="439"/>
      <point x="226" y="540" type="curve" smooth="yes"/>
      <point x="226" y="573"/>
      <point x="261" y="599"/>
      <point x="325" y="599" type="curve" smooth="yes"/>
      <point x="377" y="599"/>
      <point x="404" y="579"/>
      <point x="404" y="545" type="curve" smooth="yes"/>
      <point x="404" y="536" type="line"/>
      <point x="533" y="536" type="line"/>
      <point x="536" y="556"/>
      <point x="536" y="562"/>
      <point x="536" y="567" type="curve" smooth="yes"/>
      <point x="536" y="652"/>
      <point x="447" y="696"/>
      <point x="337" y="696" type="curve" smooth="yes"/>
      <point x="220" y="696"/>
      <point x="89" y="644"/>
      <point x="89" y="513" type="curve" smooth="yes"/>
    </contour>
    <contour>
      <point x="267" y="181"/>
      <point x="165" y="212"/>
      <point x="165" y="281" type="curve" smooth="yes"/>
      <point x="165" y="318"/>
      <point x="195" y="347"/>
      <point x="220" y="359" type="curve"/>
      <point x="283" y="326"/>
      <point x="386" y="296"/>
      <point x="386" y="227" type="curve" smooth="yes"/>
      <point x="386" y="192"/>
      <point x="360" y="164"/>
      <point x="332" y="149" type="curve"/>
    </contour>
  </outline>
</glyph>
<glyph name="dieresis" format="1">
  <advance width="440"/>
  <unicode hex="00A8"/>
  <outline>
    <contour>
      <point x="50" y="618" type="line"/>
      <point x="171" y="618" type="line"/>
      <point x="188" y="740" type="line"/>
      <point x="67" y="740" type="line"/>
    </contour>
    <contour>
      <point x="254" y="618" type="line"/>
      <point x="375" y="618" type="line"/>
      <point x="392" y="740" type="line"/>
      <point x="271" y="740" type="line"/>
    </contour>
    <contour>
      <point x="197" y="511" type="move" name="_top"/>
    </contour>
  </outline>
</glyph>
<glyph name="copyright" format="1">
  <advance width="740"/>
  <unicode hex="00A9"/>
  <outline>
    <contour>
      <point x="724" y="539"/>
      <point x="565" y="696"/>
      <point x="370" y="696" type="curve" smooth="yes"/>
      <point x="174" y="696"/>
      <point x="16" y="539"/>
      <point x="16" y="344" type="curve" smooth="yes"/>
      <point x="16" y="147"/>
      <point x="174" y="-10"/>
      <point x="370" y="-10" type="curve" smooth="yes"/>
      <point x="565" y="-10"/>
      <point x="724" y="147"/>
      <point x="724" y="344" type="curve" smooth="yes"/>
    </contour>
    <contour>
      <point x="665" y="165"/>
      <point x="542" y="42"/>
      <point x="370" y="42" type="curve" smooth="yes"/>
      <point x="195" y="42"/>
      <point x="74" y="165"/>
      <point x="74" y="344" type="curve" smooth="yes"/>
      <point x="74" y="519"/>
      <point x="195" y="643"/>
      <point x="370" y="643" type="curve" smooth="yes"/>
      <point x="542" y="643"/>
      <point x="665" y="519"/>
      <point x="665" y="344" type="curve" smooth="yes"/>
    </contour>
    <contour>
      <point x="287" y="386" type="line" smooth="yes"/>
      <point x="287" y="449"/>
      <point x="325" y="482"/>
      <point x="374" y="482" type="curve" smooth="yes"/>
      <point x="426" y="482"/>
      <point x="455" y="449"/>
      <point x="455" y="386" type="curve"/>
      <point x="543" y="386" type="line"/>
      <point x="543" y="500"/>
      <point x="470" y="556"/>
      <point x="376" y="556" type="curve" smooth="yes"/>
      <point x="368" y="556" type="line" smooth="yes"/>
      <point x="269" y="556"/>
      <point x="189" y="490"/>
      <point x="189" y="373" type="curve" smooth="yes"/>
      <point x="189" y="314" type="line" smooth="yes"/>
      <point x="189" y="193"/>
      <point x="267" y="130"/>
      <point x="370" y="130" type="curve" smooth="yes"/>
      <point x="379" y="130" type="line" smooth="yes"/>
      <point x="471" y="130"/>
      <point x="543" y="189"/>
      <point x="543" y="299" type="curve"/>
      <point x="458" y="299" type="line"/>
      <point x="458" y="234"/>
      <point x="432" y="204"/>
      <point x="374" y="204" type="curve" smooth="yes"/>
      <point x="326" y="204"/>
      <point x="287" y="237"/>
      <point x="287" y="300" type="curve" smooth="yes"/>
    </contour>
  </outline>
</glyph>
<glyph name="macron" format="1">
  <advance width="460"/>
  <unicode hex="00AF"/>
  <outline>
    <contour>
      <point x="383" y="662" type="line"/>
      <point x="394" y="736" type="line"/>
      <point x="76" y="736" type="line"/>
      <point x="65" y="662" type="line"/>
    </contour>
    <contour>
      <point x="203" y="511" type="move" name="_top"/>
    </contour>
  </outline>
</glyph>
<glyph name="degree" format="1">
  <advance width="400"/>
  <unicode hex="00B0"/>
  <outline>
    <contour>
      <point x="352" y="637"/>
      <point x="299" y="696"/>
      <point x="214" y="696" type="curve" smooth="yes"/>
      <point x="129" y="696"/>
      <point x="47" y="627"/>
      <point x="47" y="530" type="curve" smooth="yes"/>
      <point x="47" y="453"/>
      <point x="100" y="396"/>
      <point x="184" y="396" type="curve" smooth="yes"/>
      <point x="272" y="396"/>
      <point x="352" y="466"/>
      <point x="352" y="561" type="curve" smooth="yes"/>
    </contour>
    <contour>
      <point x="151" y="467"/>
      <point x="124" y="497"/>
      <point x="124" y="539" type="curve" smooth="yes"/>
      <point x="124" y="588"/>
      <point x="163" y="623"/>
      <point x="204" y="623" type="curve" smooth="yes"/>
      <point x="254" y="623"/>
      <point x="274" y="585"/>
      <point x="274" y="553" type="curve" smooth="yes"/>
      <point x="274" y="502"/>
      <point x="236" y="467"/>
      <point x="193" y="467" type="curve" smooth="yes"/>
    </contour>
  </outline>
</glyph>
<glyph name="twosuperior" format="1">
  <advance width="505"/>
  <unicode hex="00B2"/>
  <outline>
    <contour>
      <point x="326" y="751"/>
      <point x="290" y="802"/>
      <point x="206" y="802" type="curve" smooth="yes"/>
      <point x="52" y="802"/>
      <point x="49" y="674"/>
      <point x="49" y="664" type="curve"/>
      <point x="125" y="664" type="line"/>
      <point x="125" y="705"/>
      <point x="152" y="735"/>
      <point x="193" y="735" type="curve" smooth="yes"/>
      <point x="226" y="735"/>
      <point x="243" y="715"/>
      <point x="243" y="690" type="curve" smooth="yes"/>
      <point x="243" y="592"/>
      <point x="14" y="570"/>
      <point x="14" y="419" type="curve"/>
      <point x="291" y="419" type="line"/>
      <point x="300" y="490" type="line"/>
      <point x="133" y="490" type="line"/>
      <point x="158" y="528"/>
      <point x="326" y="577"/>
      <point x="326" y="695" type="curve" smooth="yes"/>
    </contour>
  </outline>
</glyph>
<glyph name="threesuperior" format="1">
  <advance width="506"/>
  <unicode hex="00B3"/>
  <outline>
    <contour>
      <point x="25" y="530" type="line"/>
      <point x="24" y="525"/>
      <point x="22" y="514"/>
      <point x="22" y="505" type="curve" smooth="yes"/>
      <point x="22" y="451"/>
      <point x="64" y="412"/>
      <point x="145" y="412" type="curve" smooth="yes"/>
      <point x="159" y="412" type="line" smooth="yes"/>
      <point x="243" y="412"/>
      <point x="313" y="459"/>
      <point x="313" y="537" type="curve" smooth="yes"/>
      <point x="313" y="576"/>
      <point x="292" y="600"/>
      <point x="259" y="611" type="curve"/>
      <point x="259" y="616" type="line"/>
      <point x="297" y="632"/>
      <point x="328" y="663"/>
      <point x="328" y="711" type="curve" smooth="yes"/>
      <point x="328" y="763"/>
      <point x="282" y="800"/>
      <point x="214" y="800" type="curve" smooth="yes"/>
      <point x="203" y="800" type="line" smooth="yes"/>
      <point x="125" y="800"/>
      <point x="60" y="756"/>
      <point x="56" y="686" type="curve"/>
      <point x="129" y="686" type="line"/>
      <point x="134" y="718"/>
      <point x="162" y="735"/>
      <point x="193" y="735" type="curve" smooth="yes"/>
      <point x="223" y="735"/>
      <point x="245" y="722"/>
      <point x="245" y="695" type="curve" smooth="yes"/>
      <point x="245" y="658"/>
      <point x="214" y="639"/>
      <point x="181" y="639" type="curve" smooth="yes"/>
      <point x="136" y="639" type="line"/>
      <point x="128" y="580" type="line"/>
      <point x="167" y="580" type="line" smooth="yes"/>
      <point x="199" y="580"/>
      <point x="232" y="576"/>
      <point x="232" y="539" type="curve" smooth="yes"/>
      <point x="232" y="497"/>
      <point x="201" y="477"/>
      <point x="157" y="477" type="curve" smooth="yes"/>
      <point x="118" y="477"/>
      <point x="98" y="492"/>
      <point x="98" y="519" type="curve" smooth="yes"/>
      <point x="98" y="521"/>
      <point x="98" y="524"/>
      <point x="99" y="530" type="curve"/>
    </contour>
  </outline>
</glyph>
<glyph name="periodcentered" format="1">
  <advance width="277"/>
  <unicode hex="00B7"/>
  <outline>
    <contour>
      <point x="54" y="214" type="line"/>
      <point x="200" y="214" type="line"/>
      <point x="221" y="362" type="line"/>
      <point x="75" y="362" type="line"/>
    </contour>
  </outline>
</glyph>
<glyph name="onesuperior" format="1">
  <advance width="319"/>
  <unicode hex="00B9"/>
  <outline>
    <contour>
      <point x="262" y="422" type="line"/>
      <point x="271" y="487" type="line"/>
      <point x="192" y="487" type="line"/>
      <point x="236" y="796" type="line"/>
      <point x="207" y="796" type="line"/>
      <point x="159" y="772"/>
      <point x="101" y="751"/>
      <point x="59" y="748" type="curve"/>
      <point x="52" y="700" type="line"/>
      <point x="142" y="700" type="line"/>
      <point x="112" y="487" type="line"/>
      <point x="22" y="487" type="line"/>
      <point x="13" y="422" type="line"/>
    </contour>
  </outline>
</glyph>
<glyph name="ordmasculine" format="1">
  <advance width="367"/>
  <unicode hex="00BA"/>
  <outline>
    <contour>
      <point x="344" y="650"/>
      <point x="289" y="696"/>
      <point x="212" y="696" type="curve" smooth="yes"/>
      <point x="202" y="696" type="line" smooth="yes"/>
      <point x="92" y="696"/>
      <point x="25" y="617"/>
      <point x="25" y="499" type="curve" smooth="yes"/>
      <point x="25" y="419"/>
      <point x="79" y="373"/>
      <point x="157" y="373" type="curve" smooth="yes"/>
      <point x="167" y="373" type="line" smooth="yes"/>
      <point x="282" y="373"/>
      <point x="344" y="458"/>
      <point x="344" y="570" type="curve" smooth="yes"/>
    </contour>
    <contour>
      <point x="241" y="459"/>
      <point x="207" y="434"/>
      <point x="170" y="434" type="curve" smooth="yes"/>
      <point x="137" y="434"/>
      <point x="113" y="454"/>
      <point x="113" y="494" type="curve" smooth="yes"/>
      <point x="113" y="498"/>
      <point x="114" y="504"/>
      <point x="121" y="559" type="curve" smooth="yes"/>
      <point x="128" y="610"/>
      <point x="161" y="635"/>
      <point x="199" y="635" type="curve" smooth="yes"/>
      <point x="232" y="635"/>
      <point x="256" y="615"/>
      <point x="256" y="575" type="curve" smooth="yes"/>
      <point x="256" y="571"/>
      <point x="255" y="565"/>
      <point x="248" y="510" type="curve" smooth="yes"/>
    </contour>
  </outline>
</glyph>
<glyph name="onequarter" format="1">
  <advance width="745"/>
  <unicode hex="00BC"/>
  <outline>
    <contour>
      <point x="684" y="686" type="line"/>
      <point x="615" y="686" type="line"/>
      <point x="98" y="0" type="line"/>
      <point x="170" y="0" type="line"/>
    </contour>
    <contour>
      <point x="559" y="153" type="line"/>
      <point x="455" y="153" type="line"/>
      <point x="492" y="190"/>
      <point x="575" y="303"/>
      <point x="604" y="382" type="curve"/>
      <point x="527" y="382" type="line"/>
      <point x="497" y="313"/>
      <point x="439" y="213"/>
      <point x="393" y="153" type="curve"/>
      <point x="384" y="88" type="line"/>
      <point x="550" y="88" type="line"/>
      <point x="537" y="0" type="line"/>
      <point x="615" y="0" type="line"/>
      <point x="628" y="88" type="line"/>
      <point x="679" y="88" type="line"/>
      <point x="688" y="153" type="line"/>
      <point x="637" y="153" type="line"/>
      <point x="663" y="336" type="line"/>
      <point x="628" y="336" type="line"/>
      <point x="616" y="307"/>
      <point x="593" y="264"/>
      <point x="570" y="235" type="curve"/>
    </contour>
    <contour>
      <point x="284" y="306" type="line"/>
      <point x="294" y="372" type="line"/>
      <point x="204" y="372" type="line"/>
      <point x="248" y="685" type="line"/>
      <point x="219" y="685" type="line"/>
      <point x="170" y="661"/>
      <point x="111" y="640"/>
      <point x="68" y="637" type="curve"/>
      <point x="61" y="588" type="line"/>
      <point x="153" y="588" type="line"/>
      <point x="123" y="372" type="line"/>
      <point x="32" y="372" type="line"/>
      <point x="22" y="306" type="line"/>
    </contour>
  </outline>
</glyph>
<glyph name="onehalf" format="1">
  <advance width="765"/>
  <unicode hex="00BD"/>
  <outline>
    <contour>
      <point x="676" y="686" type="line"/>
      <point x="607" y="686" type="line"/>
      <point x="90" y="0" type="line"/>
      <point x="162" y="0" type="line"/>
    </contour>
    <contour>
      <point x="284" y="306" type="line"/>
      <point x="294" y="372" type="line"/>
      <point x="204" y="372" type="line"/>
      <point x="248" y="685" type="line"/>
      <point x="219" y="685" type="line"/>
      <point x="170" y="661"/>
      <point x="111" y="640"/>
      <point x="68" y="637" type="curve"/>
      <point x="61" y="588" type="line"/>
      <point x="153" y="588" type="line"/>
      <point x="123" y="372" type="line"/>
      <point x="32" y="372" type="line"/>
      <point x="22" y="306" type="line"/>
    </contour>
    <contour>
      <point x="713" y="331"/>
      <point x="677" y="382"/>
      <point x="593" y="382" type="curve" smooth="yes"/>
      <point x="439" y="382"/>
      <point x="436" y="254"/>
      <point x="436" y="244" type="curve"/>
      <point x="512" y="244" type="line"/>
      <point x="512" y="285"/>
      <point x="539" y="315"/>
      <point x="580" y="315" type="curve" smooth="yes"/>
      <point x="613" y="315"/>
      <point x="630" y="295"/>
      <point x="630" y="270" type="curve" smooth="yes"/>
      <point x="630" y="172"/>
      <point x="401" y="150"/>
      <point x="401" y="-1" type="curve"/>
      <point x="678" y="-1" type="line"/>
      <point x="687" y="70" type="line"/>
      <point x="520" y="70" type="line"/>
      <point x="545" y="108"/>
      <point x="713" y="157"/>
      <point x="713" y="275" type="curve" smooth="yes"/>
    </contour>
  </outline>
</glyph>
<glyph name="threequarters" format="1">
  <advance width="755"/>
  <unicode hex="00BE"/>
  <outline>
    <contour>
      <point x="686" y="686" type="line"/>
      <point x="617" y="686" type="line"/>
      <point x="101" y="0" type="line"/>
      <point x="173" y="0" type="line"/>
    </contour>
    <contour>
      <point x="559" y="153" type="line"/>
      <point x="455" y="153" type="line"/>
      <point x="492" y="190"/>
      <point x="575" y="303"/>
      <point x="604" y="382" type="curve"/>
      <point x="527" y="382" type="line"/>
      <point x="497" y="313"/>
      <point x="439" y="213"/>
      <point x="393" y="153" type="curve"/>
      <point x="383" y="88" type="line"/>
      <point x="549" y="88" type="line"/>
      <point x="537" y="0" type="line"/>
      <point x="615" y="0" type="line"/>
      <point x="627" y="88" type="line"/>
      <point x="678" y="88" type="line"/>
      <point x="688" y="153" type="line"/>
      <point x="637" y="153" type="line"/>
      <point x="662" y="336" type="line"/>
      <point x="627" y="336" type="line"/>
      <point x="616" y="307"/>
      <point x="593" y="264"/>
      <point x="570" y="235" type="curve"/>
    </contour>
    <contour>
      <point x="48" y="419" type="line"/>
      <point x="47" y="414"/>
      <point x="45" y="403"/>
      <point x="45" y="394" type="curve" smooth="yes"/>
      <point x="45" y="340"/>
      <point x="87" y="301"/>
      <point x="168" y="301" type="curve" smooth="yes"/>
      <point x="182" y="301" type="line" smooth="yes"/>
      <point x="266" y="301"/>
      <point x="336" y="348"/>
      <point x="336" y="426" type="curve" smooth="yes"/>
      <point x="336" y="465"/>
      <point x="315" y="489"/>
      <point x="282" y="500" type="curve"/>
      <point x="282" y="505" type="line"/>
      <point x="320" y="521"/>
      <point x="351" y="552"/>
      <point x="351" y="600" type="curve" smooth="yes"/>
      <point x="351" y="652"/>
      <point x="305" y="689"/>
      <point x="237" y="689" type="curve" smooth="yes"/>
      <point x="226" y="689" type="line" smooth="yes"/>
      <point x="148" y="689"/>
      <point x="83" y="645"/>
      <point x="79" y="575" type="curve"/>
      <point x="152" y="575" type="line"/>
      <point x="157" y="607"/>
      <point x="185" y="624"/>
      <point x="216" y="624" type="curve" smooth="yes"/>
      <point x="246" y="624"/>
      <point x="268" y="611"/>
      <point x="268" y="584" type="curve" smooth="yes"/>
      <point x="268" y="547"/>
      <point x="237" y="528"/>
      <point x="204" y="528" type="curve" smooth="yes"/>
      <point x="159" y="528" type="line"/>
      <point x="151" y="469" type="line"/>
      <point x="190" y="469" type="line" smooth="yes"/>
      <point x="222" y="469"/>
      <point x="255" y="465"/>
      <point x="255" y="428" type="curve" smooth="yes"/>
      <point x="255" y="386"/>
      <point x="224" y="366"/>
      <point x="180" y="366" type="curve" smooth="yes"/>
      <point x="141" y="366"/>
      <point x="121" y="381"/>
      <point x="121" y="408" type="curve" smooth="yes"/>
      <point x="121" y="410"/>
      <point x="121" y="413"/>
      <point x="122" y="419" type="curve"/>
    </contour>
  </outline>
</glyph>
<glyph name="Agrave" format="1">
  <advance width="686"/>
  <unicode hex="00C0"/>
  <outline>
    <contour>
      <point x="473" y="0" type="line"/>
      <point x="635" y="0" type="line"/>
      <point x="483" y="686" type="line"/>
      <point x="299" y="686" type="line"/>
      <point x="-46" y="0" type="line"/>
      <point x="102" y="0" type="line"/>
      <point x="169" y="135" type="line"/>
      <point x="442" y="135" type="line"/>
    </contour>
    <contour>
      <point x="364" y="521" type="line"/>
      <point x="382" y="432"/>
      <point x="400" y="342"/>
      <point x="418" y="252" type="curve"/>
      <point x="228" y="252" type="line"/>
      <point x="271" y="342"/>
      <point x="315" y="432"/>
      <point x="359" y="521" type="curve"/>
    </contour>
    <contour>
      <point x="463" y="750" type="line"/>
      <point x="391" y="895" type="line"/>
      <point x="263" y="895" type="line"/>
      <point x="261" y="892" type="line"/>
      <point x="361" y="750" type="line"/>
    </contour>
  </outline>
</glyph>
<glyph name="Adieresis" format="1">
  <advance width="686"/>
  <unicode hex="00C4"/>
  <outline>
    <contour>
      <point x="473" y="0" type="line"/>
      <point x="635" y="0" type="line"/>
      <point x="483" y="686" type="line"/>
      <point x="299" y="686" type="line"/>
      <point x="-46" y="0" type="line"/>
      <point x="102" y="0" type="line"/>
      <point x="169" y="135" type="line"/>
      <point x="442" y="135" type="line"/>
    </contour>
    <contour>
      <point x="364" y="521" type="line"/>
      <point x="382" y="432"/>
      <point x="400" y="342"/>
      <point x="418" y="252" type="curve"/>
      <point x="228" y="252" type="line"/>
      <point x="271" y="342"/>
      <point x="315" y="432"/>
      <point x="359" y="521" type="curve"/>
    </contour>
    <contour>
      <point x="230" y="750" type="line"/>
      <point x="351" y="750" type="line"/>
      <point x="368" y="872" type="line"/>
      <point x="247" y="872" type="line"/>
    </contour>
    <contour>
      <point x="434" y="750" type="line"/>
      <point x="555" y="750" type="line"/>
      <point x="572" y="872" type="line"/>
      <point x="451" y="872" type="line"/>
    </contour>
  </outline>
</glyph>
<glyph name="Eacute" format="1">
  <advance width="598"/>
  <unicode hex="00C9"/>
  <outline>
    <contour>
      <point x="509" y="0" type="line"/>
      <point x="509" y="123" type="line"/>
      <point x="193" y="123" type="line"/>
      <point x="216" y="290" type="line"/>
      <point x="509" y="290" type="line"/>
      <point x="526" y="413" type="line"/>
      <point x="233" y="413" type="line"/>
      <point x="254" y="563" type="line"/>
      <point x="568" y="563" type="line"/>
      <point x="603" y="686" type="line"/>
      <point x="120" y="686" type="line"/>
      <point x="23" y="0" type="line"/>
    </contour>
    <contour>
      <point x="417" y="750" type="line"/>
      <point x="558" y="891" type="line"/>
      <point x="558" y="895" type="line"/>
      <point x="429" y="895" type="line"/>
      <point x="316" y="750" type="line"/>
    </contour>
  </outline>
</glyph>
<glyph name="Ecircumflex" format="1">
  <advance width="598"/>
  <unicode hex="00CA"/>
  <outline>
    <contour>
      <point x="509" y="0" type="line"/>
      <point x="509" y="123" type="line"/>
      <point x="193" y="123" type="line"/>
      <point x="216" y="290" type="line"/>
      <point x="509" y="290" type="line"/>
      <point x="526" y="413" type="line"/>
      <point x="233" y="413" type="line"/>
      <point x="254" y="563" type="line"/>
      <point x="568" y="563" type="line"/>
      <point x="603" y="686" type="line"/>
      <point x="120" y="686" type="line"/>
      <point x="23" y="0" type="line"/>
    </contour>
    <contour>
      <point x="174" y="750" type="line"/>
      <point x="278" y="750" type="line"/>
      <point x="375" y="833" type="line"/>
      <point x="447" y="750" type="line"/>
      <point x="552" y="750" type="line"/>
      <point x="513" y="798"/>
      <point x="474" y="847"/>
      <point x="436" y="895" type="curve"/>
      <point x="333" y="895" type="line"/>
    </contour>
  </outline>
</glyph>
<glyph name="Idieresis" format="1">
  <advance width="461"/>
  <unicode hex="00CF"/>
  <outline>
    <contour>
      <point x="102" y="563" type="line"/>
      <point x="183" y="563" type="line"/>
      <point x="122" y="123" type="line"/>
      <point x="41" y="123" type="line"/>
      <point x="23" y="0" type="line"/>
      <point x="339" y="0" type="line"/>
      <point x="357" y="123" type="line"/>
      <point x="277" y="123" type="line"/>
      <point x="338" y="563" type="line"/>
      <point x="418" y="563" type="line"/>
      <point x="436" y="686" type="line"/>
      <point x="120" y="686" type="line"/>
    </contour>
    <contour>
      <point x="125" y="750" type="line"/>
      <point x="246" y="750" type="line"/>
      <point x="263" y="872" type="line"/>
      <point x="142" y="872" type="line"/>
    </contour>
    <contour>
      <point x="329" y="750" type="line"/>
      <point x="450" y="750" type="line"/>
      <point x="467" y="872" type="line"/>
      <point x="346" y="872" type="line"/>
    </contour>
  </outline>
</glyph>
<glyph name="Eth" format="1">
  <advance width="686"/>
  <unicode hex="00D0"/>
  <outline>
    <contour>
      <point x="23" y="0" type="line"/>
      <point x="268" y="0" type="line" smooth="yes"/>
      <point x="478" y="0"/>
      <point x="602" y="98"/>
      <point x="630" y="294" type="curve" smooth="yes"/>
      <point x="647" y="409"/>
      <point x="648" y="416"/>
      <point x="648" y="443" type="curve" smooth="yes"/>
      <point x="648" y="593"/>
      <point x="541" y="686"/>
      <point x="395" y="686" type="curve" smooth="yes"/>
      <point x="120" y="686" type="line"/>
      <point x="77" y="383" type="line"/>
      <point x="-5" y="383" type="line"/>
      <point x="-16" y="303" type="line"/>
      <point x="66" y="303" type="line"/>
    </contour>
    <contour>
      <point x="221" y="303" type="line"/>
      <point x="333" y="303" type="line"/>
      <point x="344" y="383" type="line"/>
      <point x="232" y="383" type="line"/>
      <point x="257" y="563" type="line"/>
      <point x="363" y="563" type="line" smooth="yes"/>
      <point x="437" y="563"/>
      <point x="488" y="520"/>
      <point x="488" y="449" type="curve" smooth="yes"/>
      <point x="488" y="406"/>
      <point x="480" y="364"/>
      <point x="466" y="272" type="curve" smooth="yes"/>
      <point x="451" y="174"/>
      <point x="388" y="123"/>
      <point x="301" y="123" type="curve" smooth="yes"/>
      <point x="196" y="123" type="line"/>
    </contour>
  </outline>
</glyph>
<glyph name="Ntilde" format="1">
  <advance width="691"/>
  <unicode hex="00D1"/>
  <outline>
    <contour>
      <point x="569" y="0" type="line"/>
      <point x="666" y="686" type="line"/>
      <point x="525" y="686" type="line"/>
      <point x="468" y="283" type="line"/>
      <point x="465" y="280" type="line"/>
      <point x="450" y="309"/>
      <point x="437" y="340"/>
      <point x="422" y="368" type="curve" smooth="yes"/>
      <point x="251" y="686" type="line"/>
      <point x="120" y="686" type="line"/>
      <point x="23" y="0" type="line"/>
      <point x="164" y="0" type="line"/>
      <point x="221" y="402" type="line"/>
      <point x="225" y="405" type="line"/>
      <point x="225" y="405"/>
      <point x="254" y="342"/>
      <point x="268" y="316" type="curve" smooth="yes"/>
      <point x="438" y="0" type="line"/>
    </contour>
    <contour>
      <point x="550" y="873" type="line"/>
      <point x="540" y="850"/>
      <point x="520" y="835"/>
      <point x="492" y="835" type="curve" smooth="yes"/>
      <point x="438" y="835"/>
      <point x="391" y="873"/>
      <point x="327" y="873" type="curve" smooth="yes"/>
      <point x="249" y="873"/>
      <point x="192" y="808"/>
      <point x="184" y="749" type="curve"/>
      <point x="249" y="749" type="line"/>
      <point x="259" y="772"/>
      <point x="278" y="786"/>
      <point x="306" y="786" type="curve" smooth="yes"/>
      <point x="360" y="786"/>
      <point x="408" y="749"/>
      <point x="472" y="749" type="curve" smooth="yes"/>
      <point x="550" y="749"/>
      <point x="607" y="813"/>
      <point x="615" y="873" type="curve"/>
    </contour>
  </outline>
</glyph>
<glyph name="Odieresis" format="1">
  <advance width="708"/>
  <unicode hex="00D6"/>
  <outline>
    <contour>
      <point x="472" y="167"/>
      <point x="409" y="113"/>
      <point x="322" y="113" type="curve" smooth="yes"/>
      <point x="247" y="113"/>
      <point x="197" y="159"/>
      <point x="197" y="236" type="curve" smooth="yes"/>
      <point x="197" y="271"/>
      <point x="203" y="304"/>
      <point x="215" y="390" type="curve" smooth="yes"/>
      <point x="230" y="506"/>
      <point x="284" y="573"/>
      <point x="384" y="573" type="curve" smooth="yes"/>
      <point x="458" y="573"/>
      <point x="509" y="526"/>
      <point x="509" y="449" type="curve" smooth="yes"/>
      <point x="509" y="406"/>
      <point x="501" y="364"/>
      <point x="487" y="272" type="curve" smooth="yes"/>
    </contour>
    <contour>
      <point x="668" y="409"/>
      <point x="669" y="416"/>
      <point x="669" y="443" type="curve" smooth="yes"/>
      <point x="669" y="599"/>
      <point x="562" y="695"/>
      <point x="416" y="695" type="curve" smooth="yes"/>
      <point x="221" y="695"/>
      <point x="82" y="592"/>
      <point x="54" y="391" type="curve" smooth="yes"/>
      <point x="38" y="276"/>
      <point x="36" y="271"/>
      <point x="36" y="241" type="curve" smooth="yes"/>
      <point x="36" y="86"/>
      <point x="143" y="-10"/>
      <point x="289" y="-10" type="curve" smooth="yes"/>
      <point x="484" y="-10"/>
      <point x="623" y="91"/>
      <point x="652" y="294" type="curve" smooth="yes"/>
    </contour>
    <contour>
      <point x="260" y="750" type="line"/>
      <point x="381" y="750" type="line"/>
      <point x="398" y="872" type="line"/>
      <point x="277" y="872" type="line"/>
    </contour>
    <contour>
      <point x="464" y="750" type="line"/>
      <point x="585" y="750" type="line"/>
      <point x="602" y="872" type="line"/>
      <point x="481" y="872" type="line"/>
    </contour>
  </outline>
</glyph>
<glyph name="multiply" format="1">
  <advance width="600"/>
  <unicode hex="00D7"/>
  <outline>
    <contour>
      <point x="185" y="474" type="line"/>
      <point x="158" y="449"/>
      <point x="130" y="424"/>
      <point x="102" y="399" type="curve"/>
      <point x="225" y="255" type="line"/>
      <point x="61" y="112" type="line"/>
      <point x="83" y="87"/>
      <point x="103" y="62"/>
      <point x="124" y="37" type="curve"/>
      <point x="289" y="180" type="line"/>
      <point x="329" y="132"/>
      <point x="372" y="85"/>
      <point x="413" y="37" type="curve"/>
      <point x="440" y="62"/>
      <point x="468" y="87"/>
      <point x="496" y="112" type="curve"/>
      <point x="372" y="255" type="line"/>
      <point x="537" y="399" type="line"/>
      <point x="516" y="424"/>
      <point x="496" y="449"/>
      <point x="474" y="474" type="curve"/>
      <point x="310" y="330" type="line"/>
    </contour>
  </outline>
</glyph>
<glyph name="Oslash" format="1">
  <advance width="708"/>
  <unicode hex="00D8"/>
  <outline>
    <contour>
      <point x="668" y="409"/>
      <point x="669" y="416"/>
      <point x="669" y="443" type="curve" smooth="yes"/>
      <point x="669" y="517"/>
      <point x="644" y="579"/>
      <point x="603" y="622" type="curve"/>
      <point x="701" y="754" type="line"/>
      <point x="615" y="754" type="line"/>
      <point x="547" y="664" type="line"/>
      <point x="510" y="684"/>
      <point x="465" y="695"/>
      <point x="416" y="695" type="curve" smooth="yes"/>
      <point x="221" y="695"/>
      <point x="82" y="592"/>
      <point x="54" y="391" type="curve" smooth="yes"/>
      <point x="38" y="276"/>
      <point x="36" y="271"/>
      <point x="36" y="241" type="curve" smooth="yes"/>
      <point x="36" y="167"/>
      <point x="60" y="107"/>
      <point x="101" y="64" type="curve"/>
      <point x="5" y="-65" type="line"/>
      <point x="91" y="-65" type="line"/>
      <point x="156" y="22" type="line"/>
      <point x="194" y="1"/>
      <point x="239" y="-10"/>
      <point x="289" y="-10" type="curve" smooth="yes"/>
      <point x="484" y="-10"/>
      <point x="623" y="91"/>
      <point x="652" y="294" type="curve" smooth="yes"/>
    </contour>
    <contour>
      <point x="472" y="167"/>
      <point x="409" y="113"/>
      <point x="322" y="113" type="curve" smooth="yes"/>
      <point x="290" y="113"/>
      <point x="262" y="121"/>
      <point x="241" y="137" type="curve"/>
      <point x="503" y="489" type="line"/>
      <point x="507" y="477"/>
      <point x="509" y="463"/>
      <point x="509" y="449" type="curve" smooth="yes"/>
      <point x="509" y="406"/>
      <point x="501" y="364"/>
      <point x="487" y="272" type="curve" smooth="yes"/>
    </contour>
    <contour>
      <point x="197" y="271"/>
      <point x="203" y="304"/>
      <point x="215" y="390" type="curve" smooth="yes"/>
      <point x="230" y="506"/>
      <point x="284" y="573"/>
      <point x="384" y="573" type="curve" smooth="yes"/>
      <point x="415" y="573"/>
      <point x="441" y="564"/>
      <point x="462" y="549" type="curve"/>
      <point x="201" y="199" type="line"/>
      <point x="198" y="210"/>
      <point x="197" y="222"/>
      <point x="197" y="236" type="curve" smooth="yes"/>
    </contour>
    <contour>
      <point x="415" y="686" type="move" name="top"/>
    </contour>
  </outline>
</glyph>
<glyph name="Ucircumflex" format="1">
  <advance width="673"/>
  <unicode hex="00DB"/>
  <outline>
    <contour>
      <point x="657" y="686" type="line"/>
      <point x="503" y="686" type="line"/>
      <point x="438" y="221" type="line" smooth="yes"/>
      <point x="429" y="157"/>
      <point x="376" y="112"/>
      <point x="305" y="112" type="curve" smooth="yes"/>
      <point x="241" y="112"/>
      <point x="200" y="150"/>
      <point x="200" y="205" type="curve" smooth="yes"/>
      <point x="200" y="213"/>
      <point x="200" y="215"/>
      <point x="266" y="686" type="curve"/>
      <point x="112" y="686" type="line"/>
      <point x="45" y="205"/>
      <point x="44" y="198"/>
      <point x="44" y="181" type="curve" smooth="yes"/>
      <point x="44" y="64"/>
      <point x="131" y="-10"/>
      <point x="273" y="-10" type="curve" smooth="yes"/>
      <point x="301" y="-10" type="line" smooth="yes"/>
      <point x="457" y="-10"/>
      <point x="572" y="75"/>
      <point x="592" y="218" type="curve" smooth="yes"/>
    </contour>
    <contour>
      <point x="197" y="750" type="line"/>
      <point x="301" y="750" type="line"/>
      <point x="398" y="833" type="line"/>
      <point x="470" y="750" type="line"/>
      <point x="575" y="750" type="line"/>
      <point x="536" y="798"/>
      <point x="497" y="847"/>
      <point x="459" y="895" type="curve"/>
      <point x="356" y="895" type="line"/>
    </contour>
  </outline>
</glyph>
<glyph name="Udieresis" format="1">
  <advance width="673"/>
  <unicode hex="00DC"/>
  <outline>
    <contour>
      <point x="657" y="686" type="line"/>
      <point x="503" y="686" type="line"/>
      <point x="438" y="221" type="line" smooth="yes"/>
      <point x="429" y="157"/>
      <point x="376" y="112"/>
      <point x="305" y="112" type="curve" smooth="yes"/>
      <point x="241" y="112"/>
      <point x="200" y="150"/>
      <point x="200" y="205" type="curve" smooth="yes"/>
      <point x="200" y="213"/>
      <point x="200" y="215"/>
      <point x="266" y="686" type="curve"/>
      <point x="112" y="686" type="line"/>
      <point x="45" y="205"/>
      <point x="44" y="198"/>
      <point x="44" y="181" type="curve" smooth="yes"/>
      <point x="44" y="64"/>
      <point x="131" y="-10"/>
      <point x="273" y="-10" type="curve" smooth="yes"/>
      <point x="301" y="-10" type="line" smooth="yes"/>
      <point x="457" y="-10"/>
      <point x="572" y="75"/>
      <point x="592" y="218" type="curve" smooth="yes"/>
    </contour>
    <contour>
      <point x="226" y="750" type="line"/>
      <point x="347" y="750" type="line"/>
      <point x="364" y="872" type="line"/>
      <point x="243" y="872" type="line"/>
    </contour>
    <contour>
      <point x="430" y="750" type="line"/>
      <point x="551" y="750" type="line"/>
      <point x="568" y="872" type="line"/>
      <point x="447" y="872" type="line"/>
    </contour>
  </outline>
</glyph>
<glyph name="aring" format="1">
  <advance width="598"/>
  <unicode hex="00E5"/>
  <outline>
    <contour>
      <point x="450" y="511" type="line"/>
      <point x="417" y="448" type="line"/>
      <point x="411" y="448" type="line"/>
      <point x="385" y="493"/>
      <point x="333" y="521"/>
      <point x="272" y="521" type="curve" smooth="yes"/>
      <point x="122" y="521"/>
      <point x="31" y="371"/>
      <point x="31" y="191" type="curve" smooth="yes"/>
      <point x="31" y="66"/>
      <point x="91" y="-10"/>
      <point x="203" y="-10" type="curve" smooth="yes"/>
      <point x="266" y="-10"/>
      <point x="321" y="21"/>
      <point x="360" y="66" type="curve"/>
      <point x="365" y="17"/>
      <point x="398" y="-10"/>
      <point x="466" y="-10" type="curve" smooth="yes"/>
      <point x="500" y="-10"/>
      <point x="535" y="0"/>
      <point x="556" y="11" type="curve"/>
      <point x="570" y="104" type="line"/>
      <point x="560" y="97"/>
      <point x="542" y="90"/>
      <point x="528" y="90" type="curve" smooth="yes"/>
      <point x="512" y="90"/>
      <point x="503" y="100"/>
      <point x="503" y="117" type="curve" smooth="yes"/>
      <point x="503" y="132"/>
      <point x="544" y="421"/>
      <point x="557" y="511" type="curve"/>
    </contour>
    <contour>
      <point x="357" y="130"/>
      <point x="310" y="90"/>
      <point x="256" y="90" type="curve" smooth="yes"/>
      <point x="208" y="90"/>
      <point x="175" y="121"/>
      <point x="175" y="183" type="curve" smooth="yes"/>
      <point x="175" y="192"/>
      <point x="176" y="201"/>
      <point x="189" y="294" type="curve" smooth="yes"/>
      <point x="201" y="375"/>
      <point x="247" y="415"/>
      <point x="302" y="415" type="curve" smooth="yes"/>
      <point x="349" y="415"/>
      <point x="383" y="384"/>
      <point x="383" y="322" type="curve" smooth="yes"/>
      <point x="383" y="313"/>
      <point x="382" y="304"/>
      <point x="369" y="211" type="curve" smooth="yes"/>
    </contour>
    <contour>
      <point x="442" y="720"/>
      <point x="403" y="758"/>
      <point x="351" y="758" type="curve" smooth="yes"/>
      <point x="292" y="758"/>
      <point x="238" y="710"/>
      <point x="238" y="647" type="curve" smooth="yes"/>
      <point x="238" y="595"/>
      <point x="277" y="557"/>
      <point x="330" y="557" type="curve" smooth="yes"/>
      <point x="390" y="557"/>
      <point x="442" y="606"/>
      <point x="442" y="668" type="curve" smooth="yes"/>
    </contour>
    <contour>
      <point x="311" y="610"/>
      <point x="294" y="629"/>
      <point x="294" y="653" type="curve" smooth="yes"/>
      <point x="294" y="683"/>
      <point x="317" y="705"/>
      <point x="344" y="705" type="curve" smooth="yes"/>
      <point x="369" y="705"/>
      <point x="387" y="686"/>
      <point x="387" y="661" type="curve" smooth="yes"/>
      <point x="387" y="630"/>
      <point x="361" y="610"/>
      <point x="336" y="610" type="curve" smooth="yes"/>
    </contour>
  </outline>
</glyph>
<glyph name="ccedilla" format="1">
  <advance width="571"/>
  <unicode hex="00E7"/>
  <outline>
    <contour>
      <point x="207" y="365"/>
      <point x="251" y="421"/>
      <point x="313" y="421" type="curve" smooth="yes"/>
      <point x="366" y="421"/>
      <point x="390" y="386"/>
      <point x="390" y="334" type="curve" smooth="yes"/>
      <point x="390" y="325"/>
      <point x="389" y="316"/>
      <point x="388" y="307" type="curve"/>
      <point x="533" y="307" type="line"/>
      <point x="535" y="319"/>
      <point x="535" y="330"/>
      <point x="535" y="341" type="curve" smooth="yes"/>
      <point x="535" y="457"/>
      <point x="448" y="521"/>
      <point x="342" y="521" type="curve" smooth="yes"/>
      <point x="326" y="521" type="line" smooth="yes"/>
      <point x="125" y="521"/>
      <point x="38" y="355"/>
      <point x="38" y="192" type="curve" smooth="yes"/>
      <point x="38" y="63"/>
      <point x="119" y="-10"/>
      <point x="251" y="-10" type="curve" smooth="yes"/>
      <point x="267" y="-10" type="line" smooth="yes"/>
      <point x="382" y="-10"/>
      <point x="497" y="55"/>
      <point x="518" y="203" type="curve"/>
      <point x="380" y="203" type="line"/>
      <point x="369" y="127"/>
      <point x="325" y="90"/>
      <point x="265" y="90" type="curve" smooth="yes"/>
      <point x="212" y="90"/>
      <point x="184" y="130"/>
      <point x="184" y="183" type="curve" smooth="yes"/>
      <point x="184" y="191"/>
      <point x="185" y="199"/>
      <point x="198" y="296" type="curve" smooth="yes"/>
    </contour>
    <contour>
      <point x="107" y="-168" type="line"/>
      <point x="131" y="-187"/>
      <point x="174" y="-197"/>
      <point x="211" y="-197" type="curve" smooth="yes"/>
      <point x="257" y="-197"/>
      <point x="344" y="-180"/>
      <point x="344" y="-91" type="curve" smooth="yes"/>
      <point x="344" y="-32"/>
      <point x="291" y="-17"/>
      <point x="239" y="-17" type="curve" smooth="yes"/>
      <point x="216" y="-17" type="line"/>
      <point x="209" y="-68" type="line"/>
      <point x="229" y="-68" type="line" smooth="yes"/>
      <point x="255" y="-68"/>
      <point x="269" y="-79"/>
      <point x="269" y="-99" type="curve" smooth="yes"/>
      <point x="269" y="-130"/>
      <point x="242" y="-142"/>
      <point x="215" y="-142" type="curve" smooth="yes"/>
      <point x="168" y="-142"/>
      <point x="141" y="-119"/>
      <point x="135" y="-116" type="curve"/>
    </contour>
  </outline>
</glyph>
<glyph name="iacute" format="1">
  <advance width="278"/>
  <unicode hex="00ED"/>
  <outline>
    <contour>
      <point x="176" y="0" type="line"/>
      <point x="247" y="511" type="line"/>
      <point x="101" y="511" type="line"/>
      <point x="30" y="0" type="line"/>
    </contour>
    <contour>
      <point x="212" y="575" type="line"/>
      <point x="353" y="716" type="line"/>
      <point x="353" y="720" type="line"/>
      <point x="224" y="720" type="line"/>
      <point x="111" y="575" type="line"/>
    </contour>
  </outline>
</glyph>
<glyph name="ntilde" format="1">
  <advance width="598"/>
  <unicode hex="00F1"/>
  <outline>
    <contour>
      <point x="101" y="511" type="line"/>
      <point x="29" y="0" type="line"/>
      <point x="175" y="0" type="line"/>
      <point x="219" y="314" type="line" smooth="yes"/>
      <point x="227" y="371"/>
      <point x="277" y="415"/>
      <point x="328" y="415" type="curve" smooth="yes"/>
      <point x="370" y="415"/>
      <point x="397" y="384"/>
      <point x="397" y="340" type="curve" smooth="yes"/>
      <point x="397" y="331"/>
      <point x="397" y="330"/>
      <point x="350" y="0" type="curve"/>
      <point x="496" y="0" type="line"/>
      <point x="547" y="367"/>
      <point x="548" y="362"/>
      <point x="548" y="386" type="curve" smooth="yes"/>
      <point x="548" y="477"/>
      <point x="479" y="521"/>
      <point x="390" y="521" type="curve" smooth="yes"/>
      <point x="311" y="521"/>
      <point x="253" y="479"/>
      <point x="215" y="436" type="curve"/>
      <point x="210" y="511" type="line"/>
    </contour>
    <contour>
      <point x="499" y="720" type="line"/>
      <point x="489" y="697"/>
      <point x="469" y="682"/>
      <point x="441" y="682" type="curve" smooth="yes"/>
      <point x="387" y="682"/>
      <point x="340" y="720"/>
      <point x="276" y="720" type="curve" smooth="yes"/>
      <point x="198" y="720"/>
      <point x="141" y="655"/>
      <point x="133" y="596" type="curve"/>
      <point x="198" y="596" type="line"/>
      <point x="208" y="619"/>
      <point x="227" y="633"/>
      <point x="255" y="633" type="curve" smooth="yes"/>
      <point x="309" y="633"/>
      <point x="357" y="596"/>
      <point x="421" y="596" type="curve" smooth="yes"/>
      <point x="499" y="596"/>
      <point x="556" y="660"/>
      <point x="564" y="720" type="curve"/>
    </contour>
  </outline>
</glyph>
<glyph name="oacute" format="1">
  <advance width="606"/>
  <unicode hex="00F3"/>
  <outline>
    <contour>
      <point x="566" y="446"/>
      <point x="475" y="521"/>
      <point x="348" y="521" type="curve" smooth="yes"/>
      <point x="332" y="521" type="line" smooth="yes"/>
      <point x="150" y="521"/>
      <point x="39" y="391"/>
      <point x="39" y="197" type="curve" smooth="yes"/>
      <point x="39" y="65"/>
      <point x="129" y="-10"/>
      <point x="257" y="-10" type="curve" smooth="yes"/>
      <point x="273" y="-10" type="line" smooth="yes"/>
      <point x="463" y="-10"/>
      <point x="566" y="129"/>
      <point x="566" y="314" type="curve" smooth="yes"/>
    </contour>
    <contour>
      <point x="395" y="131"/>
      <point x="339" y="90"/>
      <point x="279" y="90" type="curve" smooth="yes"/>
      <point x="224" y="90"/>
      <point x="185" y="122"/>
      <point x="185" y="188" type="curve" smooth="yes"/>
      <point x="185" y="196"/>
      <point x="186" y="205"/>
      <point x="198" y="296" type="curve" smooth="yes"/>
      <point x="209" y="380"/>
      <point x="264" y="421"/>
      <point x="326" y="421" type="curve" smooth="yes"/>
      <point x="381" y="421"/>
      <point x="420" y="389"/>
      <point x="420" y="323" type="curve" smooth="yes"/>
      <point x="420" y="315"/>
      <point x="419" y="306"/>
      <point x="407" y="215" type="curve" smooth="yes"/>
    </contour>
    <contour>
      <point x="388" y="575" type="line"/>
      <point x="529" y="716" type="line"/>
      <point x="529" y="720" type="line"/>
      <point x="400" y="720" type="line"/>
      <point x="287" y="575" type="line"/>
    </contour>
  </outline>
</glyph>
<glyph name="divide" format="1">
  <advance width="600"/>
  <unicode hex="00F7"/>
  <outline>
    <contour>
      <point x="548" y="203" type="line"/>
      <point x="563" y="309" type="line"/>
      <point x="51" y="309" type="line"/>
      <point x="36" y="203" type="line"/>
    </contour>
    <contour>
      <point x="216" y="34" type="line"/>
      <point x="321" y="34" type="line"/>
      <point x="336" y="142" type="line"/>
      <point x="231" y="142" type="line"/>
    </contour>
    <contour>
      <point x="263" y="369" type="line"/>
      <point x="368" y="369" type="line"/>
      <point x="384" y="478" type="line"/>
      <point x="279" y="478" type="line"/>
    </contour>
  </outline>
</glyph>
<glyph name="udieresis" format="1">
  <advance width="611"/>
  <unicode hex="00FC"/>
  <outline>
    <contour>
      <point x="421" y="511" type="line"/>
      <point x="377" y="197" type="line" smooth="yes"/>
      <point x="369" y="140"/>
      <point x="319" y="96"/>
      <point x="268" y="96" type="curve" smooth="yes"/>
      <point x="226" y="96"/>
      <point x="199" y="119"/>
      <point x="199" y="170" type="curve" smooth="yes"/>
      <point x="199" y="179"/>
      <point x="199" y="181"/>
      <point x="246" y="511" type="curve"/>
      <point x="100" y="511" type="line"/>
      <point x="48" y="144"/>
      <point x="48" y="142"/>
      <point x="48" y="125" type="curve" smooth="yes"/>
      <point x="48" y="33"/>
      <point x="117" y="-10"/>
      <point x="206" y="-10" type="curve" smooth="yes"/>
      <point x="278" y="-10"/>
      <point x="332" y="25"/>
      <point x="370" y="63" type="curve"/>
      <point x="374" y="18"/>
      <point x="406" y="-10"/>
      <point x="476" y="-10" type="curve" smooth="yes"/>
      <point x="526" y="-10"/>
      <point x="559" y="7"/>
      <point x="567" y="11" type="curve"/>
      <point x="579" y="101" type="line"/>
      <point x="573" y="98"/>
      <point x="552" y="90"/>
      <point x="537" y="90" type="curve" smooth="yes"/>
      <point x="525" y="90"/>
      <point x="511" y="96"/>
      <point x="511" y="114" type="curve" smooth="yes"/>
      <point x="511" y="119"/>
      <point x="512" y="118"/>
      <point x="567" y="511" type="curve"/>
    </contour>
    <contour>
      <point x="177" y="598" type="line"/>
      <point x="298" y="598" type="line"/>
      <point x="315" y="720" type="line"/>
      <point x="194" y="720" type="line"/>
    </contour>
    <contour>
      <point x="381" y="598" type="line"/>
      <point x="502" y="598" type="line"/>
      <point x="519" y="720" type="line"/>
      <point x="398" y="720" type="line"/>
    </contour>
  </outline>
</glyph>
<glyph name="thorn" format="1">
  <advance width="597"/>
  <unicode hex="00FE"/>
  <outline>
    <contour>
      <point x="129" y="720" type="line"/>
      <point x="2" y="-181" type="line"/>
      <point x="148" y="-181" type="line"/>
      <point x="182" y="59" type="line"/>
      <point x="202" y="26"/>
      <point x="245" y="-10"/>
      <point x="315" y="-10" type="curve" smooth="yes"/>
      <point x="486" y="-10"/>
      <point x="554" y="168"/>
      <point x="554" y="319" type="curve" smooth="yes"/>
      <point x="554" y="457"/>
      <point x="478" y="521"/>
      <point x="375" y="521" type="curve" smooth="yes"/>
      <point x="318" y="521"/>
      <point x="274" y="498"/>
      <point x="239" y="466" type="curve"/>
      <point x="275" y="720" type="line"/>
    </contour>
    <contour>
      <point x="384" y="136"/>
      <point x="337" y="96"/>
      <point x="283" y="96" type="curve" smooth="yes"/>
      <point x="235" y="96"/>
      <point x="202" y="127"/>
      <point x="202" y="189" type="curve" smooth="yes"/>
      <point x="202" y="198"/>
      <point x="203" y="207"/>
      <point x="216" y="300" type="curve" smooth="yes"/>
      <point x="228" y="381"/>
      <point x="274" y="421"/>
      <point x="329" y="421" type="curve" smooth="yes"/>
      <point x="376" y="421"/>
      <point x="410" y="390"/>
      <point x="410" y="328" type="curve" smooth="yes"/>
      <point x="410" y="319"/>
      <point x="409" y="310"/>
      <point x="396" y="217" type="curve" smooth="yes"/>
    </contour>
  </outline>
</glyph>
<glyph name="iogonek" format="1">
  <advance width="278"/>
  <unicode hex="012F"/>
  <outline>
    <contour>
      <point x="119" y="605" type="line"/>
      <point x="267" y="605" type="line"/>
      <point x="283" y="720" type="line"/>
      <point x="135" y="720" type="line"/>
    </contour>
    <component base="dotlessi"/>
    <component base="ogonek" xOffset="-23"/>
  </outline>
</glyph>
<glyph name="Lslash" format="1">
  <advance width="546"/>
  <unicode hex="0141"/>
  <outline>
    <contour>
      <point x="-1" y="274" type="line"/>
      <point x="21" y="284"/>
      <point x="44" y="295"/>
      <point x="66" y="306" type="curve"/>
      <point x="23" y="0" type="line"/>
      <point x="473" y="0" type="line"/>
      <point x="473" y="128" type="line"/>
      <point x="196" y="128" type="line"/>
      <point x="232" y="384" type="line"/>
      <point x="355" y="442" type="line"/>
      <point x="368" y="530" type="line"/>
      <point x="245" y="472" type="line"/>
      <point x="275" y="686" type="line"/>
      <point x="120" y="686" type="line"/>
      <point x="79" y="394" type="line"/>
      <point x="56" y="383"/>
      <point x="34" y="372"/>
      <point x="10" y="362" type="curve"/>
    </contour>
  </outline>
</glyph>
<glyph name="OE" format="1">
  <advance width="1024"/>
  <unicode hex="0152"/>
  <outline>
    <contour>
      <point x="932" y="0" type="line"/>
      <point x="932" y="123" type="line"/>
      <point x="630" y="123" type="line"/>
      <point x="653" y="290" type="line"/>
      <point x="932" y="290" type="line"/>
      <point x="949" y="413" type="line"/>
      <point x="670" y="413" type="line"/>
      <point x="691" y="563" type="line"/>
      <point x="991" y="563" type="line"/>
      <point x="1026" y="686" type="line"/>
      <point x="552" y="686" type="line"/>
      <point x="547" y="654" type="line"/>
      <point x="507" y="681"/>
      <point x="459" y="695"/>
      <point x="406" y="695" type="curve" smooth="yes"/>
      <point x="230" y="695"/>
      <point x="81" y="592"/>
      <point x="54" y="391" type="curve" smooth="yes"/>
      <point x="38" y="276"/>
      <point x="36" y="271"/>
      <point x="36" y="241" type="curve" smooth="yes"/>
      <point x="36" y="86"/>
      <point x="143" y="-10"/>
      <point x="289" y="-10" type="curve" smooth="yes"/>
      <point x="352" y="-10"/>
      <point x="410" y="4"/>
      <point x="459" y="32" type="curve"/>
      <point x="455" y="0" type="line"/>
    </contour>
    <contour>
      <point x="472" y="167"/>
      <point x="409" y="113"/>
      <point x="322" y="113" type="curve" smooth="yes"/>
      <point x="247" y="113"/>
      <point x="197" y="159"/>
      <point x="197" y="236" type="curve" smooth="yes"/>
      <point x="197" y="271"/>
      <point x="203" y="304"/>
      <point x="215" y="390" type="curve" smooth="yes"/>
      <point x="230" y="506"/>
      <point x="284" y="573"/>
      <point x="384" y="573" type="curve" smooth="yes"/>
      <point x="458" y="573"/>
      <point x="509" y="526"/>
      <point x="509" y="449" type="curve" smooth="yes"/>
      <point x="509" y="406"/>
      <point x="501" y="364"/>
      <point x="487" y="272" type="curve" smooth="yes"/>
    </contour>
    <contour>
      <point x="573" y="686" type="move" name="top"/>
    </contour>
  </outline>
</glyph>
<glyph name="scaron" format="1">
  <advance width="541"/>
  <unicode hex="0161"/>
  <outline>
    <contour>
      <point x="16" y="163" type="line"/>
      <point x="15" y="158"/>
      <point x="12" y="139"/>
      <point x="12" y="124" type="curve" smooth="yes"/>
      <point x="12" y="43"/>
      <point x="90" y="-10"/>
      <point x="206" y="-10" type="curve" smooth="yes"/>
      <point x="239" y="-10" type="line" smooth="yes"/>
      <point x="360" y="-10"/>
      <point x="492" y="37"/>
      <point x="492" y="187" type="curve" smooth="yes"/>
      <point x="492" y="363"/>
      <point x="194" y="290"/>
      <point x="194" y="371" type="curve" smooth="yes"/>
      <point x="194" y="402"/>
      <point x="235" y="421"/>
      <point x="294" y="421" type="curve" smooth="yes"/>
      <point x="346" y="421"/>
      <point x="378" y="406"/>
      <point x="378" y="371" type="curve"/>
      <point x="377" y="361" type="line"/>
      <point x="505" y="361" type="line"/>
      <point x="505" y="362"/>
      <point x="511" y="376"/>
      <point x="511" y="397" type="curve" smooth="yes"/>
      <point x="511" y="473"/>
      <point x="422" y="521"/>
      <point x="324" y="521" type="curve" smooth="yes"/>
      <point x="304" y="521" type="line" smooth="yes"/>
      <point x="180" y="521"/>
      <point x="57" y="459"/>
      <point x="57" y="334" type="curve" smooth="yes"/>
      <point x="57" y="161"/>
      <point x="352" y="233"/>
      <point x="352" y="146" type="curve" smooth="yes"/>
      <point x="352" y="102"/>
      <point x="288" y="90"/>
      <point x="242" y="90" type="curve" smooth="yes"/>
      <point x="192" y="90"/>
      <point x="143" y="103"/>
      <point x="143" y="146" type="curve" smooth="yes"/>
      <point x="143" y="149"/>
      <point x="143" y="152"/>
      <point x="144" y="163" type="curve"/>
    </contour>
    <contour>
      <point x="258" y="575" type="line"/>
      <point x="361" y="575" type="line"/>
      <point x="420" y="630"/>
      <point x="470" y="675"/>
      <point x="519" y="720" type="curve"/>
      <point x="415" y="720" type="line"/>
      <point x="319" y="637" type="line"/>
      <point x="246" y="720" type="line"/>
      <point x="141" y="720" type="line"/>
    </contour>
  </outline>
</glyph>
<glyph name="Zcaron" format="1">
  <advance width="631"/>
  <unicode hex="017D"/>
  <outline>
    <contour>
      <point x="540" y="0" type="line"/>
      <point x="558" y="123" type="line"/>
      <point x="235" y="123" type="line"/>
      <point x="622" y="636" type="line"/>
      <point x="629" y="686" type="line"/>
      <point x="114" y="686" type="line"/>
      <point x="96" y="563" type="line"/>
      <point x="388" y="563" type="line"/>
      <point x="0" y="49" type="line"/>
      <point x="-6" y="0" type="line"/>
    </contour>
    <contour>
      <point x="316" y="750" type="line"/>
      <point x="419" y="750" type="line"/>
      <point x="478" y="805"/>
      <point x="528" y="850"/>
      <point x="577" y="895" type="curve"/>
      <point x="473" y="895" type="line"/>
      <point x="377" y="812" type="line"/>
      <point x="304" y="895" type="line"/>
      <point x="199" y="895" type="line"/>
    </contour>
  </outline>
</glyph>
<glyph name="zcaron" format="1">
  <advance width="486"/>
  <unicode hex="017E"/>
  <outline>
    <contour>
      <point x="419" y="0" type="line"/>
      <point x="433" y="100" type="line"/>
      <point x="206" y="100" type="line"/>
      <point x="476" y="462" type="line"/>
      <point x="482" y="511" type="line"/>
      <point x="84" y="511" type="line"/>
      <point x="70" y="411" type="line"/>
      <point x="275" y="411" type="line"/>
      <point x="7" y="50" type="line"/>
      <point x="0" y="0" type="line"/>
    </contour>
    <contour>
      <point x="226" y="575" type="line"/>
      <point x="329" y="575" type="line"/>
      <point x="388" y="630"/>
      <point x="438" y="675"/>
      <point x="487" y="720" type="curve"/>
      <point x="383" y="720" type="line"/>
      <point x="287" y="637" type="line"/>
      <point x="214" y="720" type="line"/>
      <point x="109" y="720" type="line"/>
    </contour>
  </outline>
</glyph>
<glyph name="breve" format="1">
  <advance width="520"/>
  <unicode hex="02D8"/>
  <outline>
    <contour>
      <point x="358" y="613"/>
      <point x="453" y="680"/>
      <point x="461" y="737" type="curve"/>
      <point x="379" y="737" type="line"/>
      <point x="371" y="715"/>
      <point x="317" y="687"/>
      <point x="261" y="687" type="curve" smooth="yes"/>
      <point x="203" y="687"/>
      <point x="160" y="713"/>
      <point x="157" y="737" type="curve"/>
      <point x="76" y="737" type="line"/>
      <point x="75" y="734"/>
      <point x="75" y="731"/>
      <point x="75" y="729" type="curve" smooth="yes"/>
      <point x="75" y="674"/>
      <point x="150" y="613"/>
      <point x="251" y="613" type="curve" smooth="yes"/>
    </contour>
    <contour>
      <point x="245" y="511" type="move" name="_top"/>
    </contour>
  </outline>
</glyph>
<glyph name="ring" format="1">
  <advance width="340"/>
  <unicode hex="02DA"/>
  <outline>
    <contour>
      <point x="270" y="708"/>
      <point x="231" y="746"/>
      <point x="179" y="746" type="curve" smooth="yes"/>
      <point x="120" y="746"/>
      <point x="66" y="698"/>
      <point x="66" y="635" type="curve" smooth="yes"/>
      <point x="66" y="583"/>
      <point x="105" y="545"/>
      <point x="158" y="545" type="curve" smooth="yes"/>
      <point x="218" y="545"/>
      <point x="270" y="594"/>
      <point x="270" y="656" type="curve" smooth="yes"/>
    </contour>
    <contour>
      <point x="139" y="598"/>
      <point x="122" y="617"/>
      <point x="122" y="641" type="curve" smooth="yes"/>
      <point x="122" y="671"/>
      <point x="145" y="693"/>
      <point x="172" y="693" type="curve" smooth="yes"/>
      <point x="197" y="693"/>
      <point x="215" y="674"/>
      <point x="215" y="649" type="curve" smooth="yes"/>
      <point x="215" y="618"/>
      <point x="189" y="598"/>
      <point x="164" y="598" type="curve" smooth="yes"/>
    </contour>
    <contour>
      <point x="149" y="511" type="move" name="_top"/>
    </contour>
  </outline>
</glyph>
<glyph name="tilde" format="1">
  <advance width="348"/>
  <unicode hex="02DC"/>
  <outline>
    <contour>
      <point x="341" y="718" type="line"/>
      <point x="331" y="695"/>
      <point x="311" y="680"/>
      <point x="283" y="680" type="curve" smooth="yes"/>
      <point x="229" y="680"/>
      <point x="182" y="718"/>
      <point x="118" y="718" type="curve" smooth="yes"/>
      <point x="40" y="718"/>
      <point x="-17" y="653"/>
      <point x="-25" y="594" type="curve"/>
      <point x="40" y="594" type="line"/>
      <point x="50" y="617"/>
      <point x="69" y="631"/>
      <point x="97" y="631" type="curve" smooth="yes"/>
      <point x="151" y="631"/>
      <point x="199" y="594"/>
      <point x="263" y="594" type="curve" smooth="yes"/>
      <point x="341" y="594"/>
      <point x="398" y="658"/>
      <point x="406" y="718" type="curve"/>
    </contour>
    <contour>
      <point x="150" y="511" type="move" name="_top"/>
    </contour>
  </outline>
</glyph>
<glyph name="hungarumlaut" format="1">
  <advance width="498"/>
  <unicode hex="02DD"/>
  <outline>
    <contour>
      <point x="133" y="575" type="line"/>
      <point x="274" y="717" type="line"/>
      <point x="273" y="720" type="line"/>
      <point x="145" y="720" type="line"/>
      <point x="31" y="575" type="line"/>
    </contour>
    <contour>
      <point x="324" y="575" type="line"/>
      <point x="465" y="717" type="line"/>
      <point x="464" y="720" type="line"/>
      <point x="336" y="720" type="line"/>
      <point x="222" y="575" type="line"/>
    </contour>
    <contour>
      <point x="219" y="511" type="move" name="_top"/>
    </contour>
  </outline>
</glyph>
<glyph name="mu" format="1">
  <advance width="610"/>
  <unicode hex="03BC"/>
  <outline>
    <contour>
      <point x="432" y="511" type="line"/>
      <point x="388" y="197" type="line" smooth="yes"/>
      <point x="380" y="140"/>
      <point x="329" y="96"/>
      <point x="278" y="96" type="curve" smooth="yes"/>
      <point x="236" y="96"/>
      <point x="210" y="126"/>
      <point x="210" y="170" type="curve" smooth="yes"/>
      <point x="210" y="179"/>
      <point x="210" y="180"/>
      <point x="257" y="511" type="curve"/>
      <point x="111" y="511" type="line"/>
      <point x="16" y="-161" type="line"/>
      <point x="162" y="-161" type="line"/>
      <point x="177" y="-57" type="line" smooth="yes"/>
      <point x="178" y="-49"/>
      <point x="178" y="-42"/>
      <point x="178" y="-35" type="curve" smooth="yes"/>
      <point x="178" y="-23"/>
      <point x="177" y="-12"/>
      <point x="175" y="-3" type="curve"/>
      <point x="188" y="-8"/>
      <point x="202" y="-10"/>
      <point x="216" y="-10" type="curve" smooth="yes"/>
      <point x="288" y="-10"/>
      <point x="342" y="25"/>
      <point x="381" y="63" type="curve"/>
      <point x="384" y="18"/>
      <point x="416" y="-10"/>
      <point x="486" y="-10" type="curve" smooth="yes"/>
      <point x="536" y="-10"/>
      <point x="570" y="7"/>
      <point x="577" y="11" type="curve"/>
      <point x="590" y="101" type="line"/>
      <point x="584" y="98"/>
      <point x="563" y="90"/>
      <point x="548" y="90" type="curve" smooth="yes"/>
      <point x="536" y="90"/>
      <point x="522" y="96"/>
      <point x="522" y="114" type="curve" smooth="yes"/>
      <point x="522" y="116"/>
      <point x="523" y="118"/>
      <point x="578" y="511" type="curve"/>
    </contour>
  </outline>
</glyph>
<glyph name="endash" format="1">
  <advance width="500"/>
  <unicode hex="2013"/>
  <outline>
    <contour>
      <point x="491" y="209" type="line"/>
      <point x="508" y="336" type="line"/>
      <point x="8" y="336" type="line"/>
      <point x="-8" y="209" type="line"/>
    </contour>
  </outline>
</glyph>
<glyph name="emdash" format="1">
  <advance width="911"/>
  <unicode hex="2014"/>
  <outline>
    <contour>
      <point x="901" y="209" type="line"/>
      <point x="918" y="335" type="line"/>
      <point x="8" y="335" type="line"/>
      <point x="-8" y="209" type="line"/>
    </contour>
  </outline>
</glyph>
<glyph name="quoteleft" format="1">
  <advance width="277"/>
  <unicode hex="2018"/>
  <outline>
    <contour>
      <point x="127" y="686" type="line"/>
      <point x="61" y="518" type="line"/>
      <point x="44" y="395" type="line"/>
      <point x="190" y="395" type="line"/>
      <point x="211" y="542" type="line"/>
      <point x="148" y="542" type="line"/>
      <point x="200" y="686" type="line"/>
    </contour>
  </outline>
</glyph>
<glyph name="quotedblleft" format="1">
  <advance width="472"/>
  <unicode hex="201C"/>
  <outline>
    <contour>
      <point x="322" y="686" type="line"/>
      <point x="256" y="518" type="line"/>
      <point x="239" y="395" type="line"/>
      <point x="385" y="395" type="line"/>
      <point x="406" y="542" type="line"/>
      <point x="343" y="542" type="line"/>
      <point x="395" y="686" type="line"/>
    </contour>
    <contour>
      <point x="127" y="686" type="line"/>
      <point x="61" y="518" type="line"/>
      <point x="44" y="395" type="line"/>
      <point x="190" y="395" type="line"/>
      <point x="211" y="542" type="line"/>
      <point x="148" y="542" type="line"/>
      <point x="200" y="686" type="line"/>
    </contour>
  </outline>
</glyph>
<glyph name="ellipsis" format="1">
  <advance width="874"/>
  <unicode hex="2026"/>
  <outline>
    <contour>
      <point x="62" y="0" type="line"/>
      <point x="209" y="0" type="line"/>
      <point x="230" y="147" type="line"/>
      <point x="83" y="147" type="line"/>
    </contour>
    <contour>
      <point x="353" y="0" type="line"/>
      <point x="499" y="0" type="line"/>
      <point x="520" y="147" type="line"/>
      <point x="374" y="147" type="line"/>
    </contour>
    <contour>
      <point x="643" y="0" type="line"/>
      <point x="789" y="0" type="line"/>
      <point x="810" y="147" type="line"/>
      <point x="664" y="147" type="line"/>
    </contour>
  </outline>
</glyph>
<glyph name="perthousand" format="1">
  <advance width="1080"/>
  <unicode hex="2030"/>
  <outline>
    <contour>
      <point x="666" y="686" type="line"/>
      <point x="586" y="686" type="line"/>
      <point x="70" y="0" type="line"/>
      <point x="153" y="0" type="line"/>
    </contour>
    <contour>
      <point x="334" y="569"/>
      <point x="334" y="576"/>
      <point x="334" y="582" type="curve" smooth="yes"/>
      <point x="334" y="640"/>
      <point x="292" y="685"/>
      <point x="229" y="685" type="curve" smooth="yes"/>
      <point x="214" y="685" type="line" smooth="yes"/>
      <point x="138" y="685"/>
      <point x="83" y="630"/>
      <point x="74" y="563" type="curve" smooth="yes"/>
      <point x="68" y="522"/>
      <point x="58" y="453"/>
      <point x="58" y="439" type="curve" smooth="yes"/>
      <point x="58" y="381"/>
      <point x="101" y="336"/>
      <point x="165" y="336" type="curve" smooth="yes"/>
      <point x="180" y="336" type="line" smooth="yes"/>
      <point x="250" y="336"/>
      <point x="309" y="391"/>
      <point x="319" y="458" type="curve" smooth="yes"/>
    </contour>
    <contour>
      <point x="233" y="421"/>
      <point x="211" y="400"/>
      <point x="182" y="400" type="curve" smooth="yes"/>
      <point x="148" y="400"/>
      <point x="139" y="421"/>
      <point x="139" y="449" type="curve" smooth="yes"/>
      <point x="139" y="458"/>
      <point x="157" y="573"/>
      <point x="157" y="573" type="curve"/>
      <point x="161" y="600"/>
      <point x="184" y="622"/>
      <point x="213" y="622" type="curve" smooth="yes"/>
      <point x="247" y="622"/>
      <point x="254" y="600"/>
      <point x="254" y="573" type="curve" smooth="yes"/>
      <point x="254" y="562"/>
      <point x="236" y="449"/>
      <point x="236" y="449" type="curve"/>
    </contour>
    <contour>
      <point x="677" y="232"/>
      <point x="677" y="239"/>
      <point x="677" y="245" type="curve" smooth="yes"/>
      <point x="677" y="303"/>
      <point x="635" y="348"/>
      <point x="572" y="348" type="curve" smooth="yes"/>
      <point x="557" y="348" type="line" smooth="yes"/>
      <point x="481" y="348"/>
      <point x="426" y="293"/>
      <point x="417" y="226" type="curve" smooth="yes"/>
      <point x="411" y="185"/>
      <point x="401" y="116"/>
      <point x="401" y="102" type="curve" smooth="yes"/>
      <point x="401" y="44"/>
      <point x="444" y="-1"/>
      <point x="508" y="-1" type="curve" smooth="yes"/>
      <point x="523" y="-1" type="line" smooth="yes"/>
      <point x="593" y="-1"/>
      <point x="652" y="54"/>
      <point x="662" y="121" type="curve" smooth="yes"/>
    </contour>
    <contour>
      <point x="576" y="84"/>
      <point x="554" y="63"/>
      <point x="525" y="63" type="curve" smooth="yes"/>
      <point x="491" y="63"/>
      <point x="482" y="84"/>
      <point x="482" y="112" type="curve" smooth="yes"/>
      <point x="482" y="121"/>
      <point x="500" y="236"/>
      <point x="500" y="236" type="curve"/>
      <point x="504" y="263"/>
      <point x="527" y="285"/>
      <point x="556" y="285" type="curve" smooth="yes"/>
      <point x="590" y="285"/>
      <point x="597" y="263"/>
      <point x="597" y="236" type="curve" smooth="yes"/>
      <point x="597" y="225"/>
      <point x="579" y="112"/>
      <point x="579" y="112" type="curve"/>
    </contour>
    <contour>
      <point x="1014" y="232"/>
      <point x="1014" y="239"/>
      <point x="1014" y="245" type="curve" smooth="yes"/>
      <point x="1014" y="303"/>
      <point x="972" y="348"/>
      <point x="909" y="348" type="curve" smooth="yes"/>
      <point x="894" y="348" type="line" smooth="yes"/>
      <point x="818" y="348"/>
      <point x="763" y="293"/>
      <point x="754" y="226" type="curve" smooth="yes"/>
      <point x="748" y="185"/>
      <point x="738" y="116"/>
      <point x="738" y="102" type="curve" smooth="yes"/>
      <point x="738" y="44"/>
      <point x="781" y="-1"/>
      <point x="845" y="-1" type="curve" smooth="yes"/>
      <point x="860" y="-1" type="line" smooth="yes"/>
      <point x="930" y="-1"/>
      <point x="989" y="54"/>
      <point x="999" y="121" type="curve" smooth="yes"/>
    </contour>
    <contour>
      <point x="913" y="84"/>
      <point x="891" y="63"/>
      <point x="862" y="63" type="curve" smooth="yes"/>
      <point x="828" y="63"/>
      <point x="819" y="84"/>
      <point x="819" y="112" type="curve" smooth="yes"/>
      <point x="819" y="121"/>
      <point x="837" y="236"/>
      <point x="837" y="236" type="curve"/>
      <point x="841" y="263"/>
      <point x="864" y="285"/>
      <point x="893" y="285" type="curve" smooth="yes"/>
      <point x="927" y="285"/>
      <point x="934" y="263"/>
      <point x="934" y="236" type="curve" smooth="yes"/>
      <point x="934" y="225"/>
      <point x="916" y="112"/>
      <point x="916" y="112" type="curve"/>
    </contour>
  </outline>
</glyph>
<glyph name="uni2113" format="1">
  <advance width="508"/>
  <unicode hex="2113"/>
  <outline>
    <contour>
      <point x="215" y="230" type="line"/>
      <point x="438" y="230"/>
      <point x="512" y="407"/>
      <point x="512" y="531" type="curve" smooth="yes"/>
      <point x="512" y="641"/>
      <point x="453" y="698"/>
      <point x="348" y="698" type="curve" smooth="yes"/>
      <point x="233" y="698"/>
      <point x="143" y="629"/>
      <point x="123" y="489" type="curve" smooth="yes"/>
      <point x="111" y="405" type="line"/>
      <point x="257" y="406" type="line"/>
      <point x="269" y="489" type="line" smooth="yes"/>
      <point x="279" y="556"/>
      <point x="314" y="590"/>
      <point x="359" y="590" type="curve" smooth="yes"/>
      <point x="394" y="590"/>
      <point x="418" y="569"/>
      <point x="418" y="510" type="curve" smooth="yes"/>
      <point x="418" y="435"/>
      <point x="379" y="315"/>
      <point x="227" y="315" type="curve"/>
    </contour>
    <contour>
      <point x="16" y="230" type="line"/>
      <point x="188" y="230" type="line"/>
      <point x="200" y="316" type="line"/>
      <point x="28" y="316" type="line"/>
    </contour>
    <contour>
      <point x="117" y="447" type="line"/>
      <point x="78" y="172" type="line" smooth="yes"/>
      <point x="75" y="149"/>
      <point x="74" y="136"/>
      <point x="74" y="126" type="curve" smooth="yes"/>
      <point x="74" y="43"/>
      <point x="136" y="-11"/>
      <point x="239" y="-11" type="curve" smooth="yes"/>
      <point x="288" y="-11"/>
      <point x="346" y="1"/>
      <point x="382" y="20" type="curve"/>
      <point x="394" y="111" type="line"/>
      <point x="364" y="99"/>
      <point x="327" y="87"/>
      <point x="294" y="87" type="curve" smooth="yes"/>
      <point x="254" y="87"/>
      <point x="223" y="104"/>
      <point x="223" y="156" type="curve" smooth="yes"/>
      <point x="223" y="162"/>
      <point x="223" y="169"/>
      <point x="225" y="184" type="curve" smooth="yes"/>
      <point x="263" y="448" type="line"/>
    </contour>
  </outline>
</glyph>
<glyph name="partialdiff" format="1">
  <advance width="600"/>
  <unicode hex="2202"/>
  <outline>
    <contour>
      <point x="215" y="578" type="line"/>
      <point x="335" y="578" type="line" smooth="yes"/>
      <point x="388" y="578"/>
      <point x="427" y="531"/>
      <point x="427" y="485" type="curve" smooth="yes"/>
      <point x="427" y="481"/>
      <point x="426" y="478"/>
      <point x="411" y="371" type="curve"/>
      <point x="381" y="413"/>
      <point x="326" y="434"/>
      <point x="277" y="434" type="curve" smooth="yes"/>
      <point x="144" y="434"/>
      <point x="25" y="342"/>
      <point x="25" y="187" type="curve" smooth="yes"/>
      <point x="25" y="67"/>
      <point x="114" y="-10"/>
      <point x="240" y="-10" type="curve" smooth="yes"/>
      <point x="258" y="-10" type="line" smooth="yes"/>
      <point x="395" y="-10"/>
      <point x="518" y="89"/>
      <point x="538" y="230" type="curve" smooth="yes"/>
      <point x="571" y="468"/>
      <point x="572" y="480"/>
      <point x="572" y="492" type="curve" smooth="yes"/>
      <point x="572" y="613"/>
      <point x="484" y="696"/>
      <point x="360" y="696" type="curve" smooth="yes"/>
      <point x="231" y="696" type="line"/>
    </contour>
    <contour>
      <point x="380" y="146"/>
      <point x="326" y="101"/>
      <point x="265" y="101" type="curve" smooth="yes"/>
      <point x="206" y="101"/>
      <point x="168" y="139"/>
      <point x="168" y="190" type="curve" smooth="yes"/>
      <point x="168" y="195"/>
      <point x="168" y="200"/>
      <point x="173" y="235" type="curve" smooth="yes"/>
      <point x="181" y="294"/>
      <point x="236" y="339"/>
      <point x="295" y="339" type="curve" smooth="yes"/>
      <point x="354" y="339"/>
      <point x="393" y="302"/>
      <point x="393" y="251" type="curve" smooth="yes"/>
      <point x="393" y="246"/>
      <point x="393" y="240"/>
      <point x="388" y="205" type="curve" smooth="yes"/>
    </contour>
  </outline>
</glyph>
<glyph name="infinity" format="1">
  <advance width="812"/>
  <unicode hex="221E"/>
  <outline>
    <contour>
      <point x="766" y="404"/>
      <point x="705" y="462"/>
      <point x="620" y="462" type="curve" smooth="yes"/>
      <point x="528" y="462"/>
      <point x="471" y="396"/>
      <point x="420" y="350" type="curve"/>
      <point x="378" y="418"/>
      <point x="327" y="462"/>
      <point x="248" y="462" type="curve" smooth="yes"/>
      <point x="141" y="462"/>
      <point x="44" y="374"/>
      <point x="44" y="251" type="curve" smooth="yes"/>
      <point x="44" y="160"/>
      <point x="108" y="102"/>
      <point x="188" y="102" type="curve" smooth="yes"/>
      <point x="271" y="102"/>
      <point x="332" y="152"/>
      <point x="394" y="216" type="curve"/>
      <point x="451" y="123"/>
      <point x="511" y="102"/>
      <point x="566" y="102" type="curve" smooth="yes"/>
      <point x="684" y="102"/>
      <point x="766" y="212"/>
      <point x="766" y="316" type="curve" smooth="yes"/>
    </contour>
    <contour>
      <point x="160" y="183"/>
      <point x="127" y="220"/>
      <point x="127" y="266" type="curve" smooth="yes"/>
      <point x="127" y="336"/>
      <point x="181" y="382"/>
      <point x="234" y="382" type="curve" smooth="yes"/>
      <point x="292" y="382"/>
      <point x="322" y="344"/>
      <point x="350" y="294" type="curve" smooth="yes"/>
      <point x="360" y="276" type="line"/>
      <point x="321" y="234"/>
      <point x="266" y="183"/>
      <point x="209" y="183" type="curve" smooth="yes"/>
    </contour>
    <contour>
      <point x="652" y="382"/>
      <point x="681" y="349"/>
      <point x="681" y="300" type="curve" smooth="yes"/>
      <point x="681" y="254"/>
      <point x="647" y="183"/>
      <point x="580" y="183" type="curve" smooth="yes"/>
      <point x="533" y="183"/>
      <point x="502" y="205"/>
      <point x="452" y="283" type="curve"/>
      <point x="487" y="321"/>
      <point x="547" y="382"/>
      <point x="603" y="382" type="curve" smooth="yes"/>
    </contour>
  </outline>
</glyph>
<glyph name="integral" format="1">
  <advance width="355"/>
  <unicode hex="222B"/>
  <outline>
    <contour>
      <point x="114" y="483"/>
      <point x="141" y="-141"/>
      <point x="141" y="-141" type="curve"/>
      <point x="141" y="-183"/>
      <point x="84" y="-191"/>
      <point x="56" y="-191" type="curve"/>
      <point x="56" y="-250" type="line"/>
      <point x="131" y="-250"/>
      <point x="245" y="-244"/>
      <point x="245" y="-138" type="curve" smooth="yes"/>
      <point x="245" y="17"/>
      <point x="218" y="643"/>
      <point x="218" y="643" type="curve"/>
      <point x="218" y="684"/>
      <point x="276" y="692"/>
      <point x="304" y="692" type="curve"/>
      <point x="304" y="750" type="line"/>
      <point x="230" y="750"/>
      <point x="114" y="744"/>
      <point x="114" y="638" type="curve" smooth="yes"/>
    </contour>
  </outline>
</glyph>
<glyph name="notequal" format="1">
  <advance width="600"/>
  <unicode hex="2260"/>
  <outline>
    <contour>
      <point x="556" y="511" type="line"/>
      <point x="463" y="511" type="line"/>
      <point x="383" y="415" type="line"/>
      <point x="68" y="415" type="line"/>
      <point x="53" y="309" type="line"/>
      <point x="298" y="309" type="line"/>
      <point x="267" y="272"/>
      <point x="236" y="236"/>
      <point x="206" y="199" type="curve"/>
      <point x="38" y="199" type="line"/>
      <point x="23" y="93" type="line"/>
      <point x="120" y="93" type="line"/>
      <point x="43" y="0" type="line"/>
      <point x="139" y="0" type="line"/>
      <point x="217" y="93" type="line"/>
      <point x="530" y="93" type="line"/>
      <point x="545" y="199" type="line"/>
      <point x="301" y="199" type="line"/>
      <point x="393" y="309" type="line"/>
      <point x="560" y="309" type="line"/>
      <point x="575" y="415" type="line"/>
      <point x="477" y="415" type="line"/>
    </contour>
  </outline>
</glyph>
<glyph name="lessequal" format="1">
  <advance width="600"/>
  <unicode hex="2264"/>
  <outline>
    <contour>
      <point x="46" y="261" type="line"/>
      <point x="536" y="126" type="line"/>
      <point x="552" y="240" type="line"/>
      <point x="426" y="267"/>
      <point x="300" y="294"/>
      <point x="175" y="322" type="curve"/>
      <point x="575" y="405" type="line"/>
      <point x="591" y="520" type="line"/>
      <point x="63" y="384" type="line"/>
    </contour>
    <contour>
      <point x="8" y="0" type="line"/>
      <point x="518" y="0" type="line"/>
      <point x="533" y="105" type="line"/>
      <point x="23" y="105" type="line"/>
    </contour>
  </outline>
</glyph>
<glyph name="greaterequal" format="1">
  <advance width="600"/>
  <unicode hex="2265"/>
  <outline>
    <contour>
      <point x="571" y="384" type="line"/>
      <point x="81" y="520" type="line"/>
      <point x="65" y="405" type="line"/>
      <point x="190" y="377"/>
      <point x="315" y="350"/>
      <point x="441" y="322" type="curve"/>
      <point x="307" y="294"/>
      <point x="174" y="267"/>
      <point x="42" y="240" type="curve"/>
      <point x="26" y="126" type="line"/>
      <point x="554" y="261" type="line"/>
    </contour>
    <contour>
      <point x="533" y="105" type="line"/>
      <point x="23" y="105" type="line"/>
      <point x="8" y="0" type="line"/>
      <point x="518" y="0" type="line"/>
    </contour>
  </outline>
</glyph>
